<?xml version="1.0" encoding="UTF-8" standalone="no"?>
<svg
     xmlns:dc="http://purl.org/dc/elements/1.1/"
     xmlns:cc="http://creativecommons.org/ns#"
     xmlns:rdf="http://www.w3.org/1999/02/22-rdf-syntax-ns#"
     xmlns:svg="http://www.w3.org/2000/svg"
     xmlns="http://www.w3.org/2000/svg"
     id="svg8"
     version="1.1"
     viewBox="0 0 120 120"
     height="120"
     width="120">
    <defs
         id="defs2" />
    <metadata
    	http-equiv="Etag"
	content="2018-12-22"
         id="metadata5">
        <rdf:RDF>
            <cc:Work
                 rdf:about="">
                <dc:format>image/svg+xml</dc:format>
                <dc:type
                     rdf:resource="http://purl.org/dc/dcmitype/StillImage" />
                <dc:title></dc:title>
            </cc:Work>
        </rdf:RDF>
    </metadata>
    <path
         style="fill:none;stroke:#979797;stroke-width:0.99999994;stroke-miterlimit:4;stroke-dasharray:none;stroke-opacity:1"
         d="m 102.98161,65.48959 c -4.278336,-4.12263 -10.407289,-9.86677 -7.778453,-16.4409 1.51103,-5.47328 -1.893055,-10.76919 -3.298043,-15.96342 -1.660163,-3.53313 -3.975402,-9.12487 1.4945,-9.72639 -2.365284,-2.35462 2.337581,-1.85759 -0.5687,-4.19791 1.327823,-6.87164 -9.018561,-5.8567 -13.098272,-8.70445 C 75.947434,7.6252 68.43056,7.98283 65.716254,6.57285 60.3832,6.9764 54.839386,3.26636 49.329673,5.45923 43.44091,6.32668 38.636052,9.88965 33.155097,11.77625 c -3.688981,0.77657 2.257029,-3.23734 -2.588373,-0.85659 -1.654351,3.10383 -3.594271,6.48346 -6.373053,5.09854 4.68962,4.64176 -6.24428,7.26396 -6.37958,12.72298 -2.402985,5.75006 -4.512182,12.07416 -4.201056,18.3334 0.491344,5.14276 0.669071,10.45877 3.546557,14.95704 2.045122,5.41201 2.691251,11.30511 5.799735,16.26522 2.655858,4.41567 4.460355,12.44279 -1.070199,15.51366 0.359117,5.27981 -1.841662,3.18152 -2.906483,8.16878 l 47.778326,13.79797 c 1.491411,-6.0263 4.37213,-2.77807 5.977168,-8.63521 -1.665947,-7.02175 4.779685,-8.74895 10.313455,-7.36202 6.183752,0.95995 15.962138,-2.87494 12.354317,-10.66207 -1.186367,-3.68763 4.401131,-8.1247 -1.987554,-8.784 -1.286711,-1.43164 7.795173,1.20906 5.458015,-3.82144 -2.137908,-3.86776 0.433074,-5.59504 4.052938,-6.32501 1.28039,-1.22347 1.20646,-3.41937 0.0524,-4.69791 z"
         id="path6335" />
    <path
         d="m 50.210295,53.924689 -17.193894,17.19298 m 28.65664,-17.19298 17.192071,17.19298 M 61.673041,42.461937 78.865112,25.268058 m -45.850077,0 17.19526,17.193879 M 78.865112,53.924689 H 33.015035 M 78.865112,42.461937 H 33.015035 M 61.673041,25.268058 V 71.118141 M 50.210295,25.268058 v 45.850083"
         onmouseover="setAttribute('stroke','red')"
         style="fill:none;stroke:#979797;stroke-width:1;stroke-linecap:round;stroke-miterlimit:4;stroke-dasharray:none"
         id="Cakra-bw" />
</svg>
