<?xml version="1.0" encoding="UTF-8" standalone="no"?>
<svg
     xmlns:dc="http://purl.org/dc/elements/1.1/"
     xmlns:cc="http://creativecommons.org/ns#"
     xmlns:rdf="http://www.w3.org/1999/02/22-rdf-syntax-ns#"
     xmlns:svg="http://www.w3.org/2000/svg"
     xmlns="http://www.w3.org/2000/svg"
     xmlns:xlink="http://www.w3.org/1999/xlink"
     id="svg4849"
     version="1.1"
     viewBox="0 0 120 120">
    <defs
         id="defs4840">
        <filter
             x="-0.09"
             y="-0.09"
             width="1.18"
             height="1.18"
             style="color-interpolation-filters:sRGB"
             id="filter6538">
            <feGaussianBlur
                 id="feGaussianBlur4834"
                 stdDeviation="3.7714524" />
        </filter>
        <filter
             x="-.10033"
             y="-.081597"
             width="1.2007"
             height="1.1632"
             style="color-interpolation-filters:sRGB"
             id="filter7874">
            <feGaussianBlur
                 id="feGaussianBlur4837"
                 stdDeviation="3.7744094" />
        </filter>
    </defs>
    <metadata
    	http-equiv="Etag"
	content="2018-12-22"
         id="metadata4842">
        <rdf:RDF>
            <cc:Work
                 rdf:about="">
                <dc:format>image/svg+xml</dc:format>
                <dc:type
                     rdf:resource="http://purl.org/dc/dcmitype/StillImage" />
                <dc:title></dc:title>
            </cc:Work>
        </rdf:RDF>
    </metadata>
    <path
         d="m53.537 1.7656c-1.498-0.036-3.107 0.197-4.717 0.7422-5.759 0.8676-10.143 3.5211-14.338 5.3809-0.545-0.4604-1.112-0.6276-1.507-0.6914-1.587-0.2558-1.687 0.1336-2.143 0.3105-0.456 0.177-0.941 0.4012-1.588 0.7188a3.0003 3.0003 0 0 0 -1.3242 1.2832c-0.81077 1.5211-1.6861 2.956-2.2598 3.541-0.2105 0.21464-0.23566 0.20854-0.25976 0.22461a3.0003 3.0003 0 0 0 -3.3184 4.875c0.1589 0.15728 0.13324 0.0835 0.19336 0.11523-0.07582 0.10839-0.52328 0.74007-1.4512 1.5625-0.99826 0.88481-2.3218 1.9202-3.5332 3.2754s-2.4181 3.2032-2.4766 5.5625l0.233-1.082c-2.4639 5.8959-4.7792 12.608-4.4297 19.639a3.0003 3.0003 0 0 0 0.0098 0.13672c0.47925 5.0162 0.58049 10.934 4.0059 16.289l-0.2793-0.55664c1.8643 4.9335 2.4854 11.091 6.0625 16.799l-0.02734-0.0469c1.0688 1.7769 2.0372 4.5569 2.1074 6.8086 0.07021 2.2517-0.39013 3.6055-2.0645 4.5352a3.0003 3.0003 0 0 0 -1.5352 2.8262c0.07662 1.1264-0.01311 1.6555-0.05273 1.7988s0.04552 0.004-0.16992 0.25977c-0.43088 0.51205-1.9865 2.2889-2.625 5.2793a3.0003 3.0003 0 0 0 2.1016 3.5098l47.779 13.799a3.0003 3.0003 0 0 0 3.7441 -2.1621c0.30366-1.227 0.60265-1.7053 0.77344-1.9199 0.17079-0.21462 0.2816-0.29271 0.81836-0.61914 1.0735-0.65285 3.4045-2.5174 4.3652-6.0234a3.0003 3.0003 0 0 0 0.02734 -1.4863c-0.30981-1.3058-0.18636-2.0471-0.0078-2.4883 0.17855-0.44123 0.42634-0.71816 0.97461-1.0156 1.0965-0.59494 3.4818-0.81111 5.6973-0.25586a3.0003 3.0003 0 0 0 0.26758 0.0547c3.9272 0.60964 8.3863-0.16853 11.955-2.5059 1.7844-1.1687 3.3744-2.8263 4.1523-5.0391 0.77792-2.2128 0.5904-4.8427-0.56836-7.3438l0.13281 0.34375c-0.06531-0.203 0.38432-1.5748 0.99609-3.8223 0.16716-0.61407 0.27694-1.4429 0.20898-2.3359 0.47704-0.22155 0.95098-0.37711 1.4395-0.84571 0.74025-0.71013 1.2907-1.8787 1.3496-2.9726s-0.23076-2.0546-0.6582-2.9746a3.0003 3.0003 0 0 0 -0.0957 -0.1875c-0.34186-0.61848-0.37105-0.91745-0.37695-1.0078 0.0867-0.0782 0.94212-0.63015 2.3984-0.92382a3.0003 3.0003 0 0 0 1.4785 -0.77149c2.6178-2.5014 2.463-6.3776 0.20703-8.877a3.0003 3.0003 0 0 0 -0.14453 -0.15039c-2.1533-2.075-4.5711-4.4241-6.0195-6.7344s-1.9607-4.1726-1.0566-6.4336a3.0003 3.0003 0 0 0 0.10742 -0.31445c1.949-7.062-2.08-13.03-3.3-17.541a3.0003 3.0003 0 0 0 -0.18164 -0.49218c-0.79913-1.7007-1.5907-3.8395-1.6445-4.8477-0.0269-0.5041 0.06683-0.54474 0.002-0.46289-0.06488 0.0818-0.09066-0.0655 0.75195-0.1582a3.0003 3.0003 0 0 0 2.5098 -3.9512c0.30593-0.48987 0.58739-1.108 0.57422-1.9648-0.01838-1.1952-0.51153-1.9572-1.0996-2.6035-0.08986-1.7466-0.54342-3.4232-1.5938-4.5586-1.4349-1.5511-3.1976-2.2645-4.875-2.8144-3.354-1.1008-6.868-1.8072-7.795-2.4539l0.08008 0.0586c-2.703-2.0223-5.918-2.574-8.72-3.0332-2.803-0.4593-5.449-0.9762-5.709-1.1113a3.0003 3.0003 0 0 0 -1.61 -0.3301c-2.849 0.2155-6.895-1.6928-11.953-1.8145z"
         xlink:href="#path6335"
         style="filter:url(#filter7874);stroke:#337cff;stroke-width:3;fill:none"
         id="Head-Glow" />
    <path
         d="m102.98 65.49c-4.2783-4.1226-10.407-9.8668-7.7785-16.441 1.511-5.4733-1.8931-10.769-3.298-15.963-1.6602-3.5331-3.9754-9.1249 1.4945-9.7264-2.3653-2.3546 2.3376-1.8576-0.5687-4.1979 1.3278-6.8716-9.0186-5.8567-13.098-8.7044-3.785-2.8328-11.301-2.4752-14.016-3.8852-5.333 0.4036-10.877-3.3064-16.386-1.1136-5.889 0.8675-10.694 4.4304-16.175 6.3168-3.689 0.77657 2.257-3.2373-2.5884-0.85659-1.6544 3.1038-3.5943 6.4835-6.3731 5.0985 4.6896 4.6418-6.2443 7.264-6.3796 12.723-2.403 5.7501-4.5122 12.074-4.2011 18.333 0.49134 5.1428 0.66907 10.459 3.5466 14.957 2.0451 5.412 2.6913 11.305 5.7997 16.265 2.6559 4.4157 4.4604 12.443-1.0702 15.514 0.35912 5.2798-1.8417 3.1815-2.9065 8.1688l47.778 13.798c1.4914-6.0263 4.3721-2.7781 5.9772-8.6352-1.6659-7.0218 4.7797-8.749 10.313-7.362 6.1838 0.95995 15.962-2.8749 12.354-10.662-1.1864-3.6876 4.4011-8.1247-1.9876-8.784-1.2867-1.4316 7.7952 1.2091 5.458-3.8214-2.1379-3.8678 0.43307-5.595 4.0529-6.325 1.2804-1.2235 1.2065-3.4194 0.0524-4.6979z"
         style="stroke:#337cff;fill:none"
         id="Head" />
    <g
         transform="matrix(.89154 0 0 .89154 5.4691 -235.71)"
         style="stroke-width:1.1217"
         id="Cakra">
        <path
             transform="matrix(.50875 0 0 .50875 51.633 137.29)"
             style="stroke-opacity:.59539;filter:url(#filter6538);stroke:#f40000;stroke-linecap:round;stroke-width:6.6141;fill:none"
             d="m-2.707 368.46-37.714 37.718m62.857-37.718 37.711 37.718m-37.711-62.861 37.711-37.715m-100.57 0 37.716 37.715m62.854 25.143h-100.57m100.57-25.143h-100.57m62.859-37.715v100.58m-25.143-100.58v100.58"
             id="Cakra-Glow" />
        <path
             d="m50.256 324.75-19.187 19.189m31.979-19.189 19.186 19.189m-19.186-31.98 19.185-19.19m-51.165 0 19.188 19.188m31.977 12.792h-51.165m51.165-12.79h-51.165m31.98-19.188v51.171m-12.792-51.17v51.171"
             style="stroke:#f40000;stroke-linecap:round;stroke-width:1.1217;fill:none"
             id="Cakra-Structure" />
    </g>
</svg>
