<?xml version="1.0" encoding="UTF-8" standalone="no"?>
<svg
     xmlns:dc="http://purl.org/dc/elements/1.1/"
     xmlns:cc="http://creativecommons.org/ns#"
     xmlns:rdf="http://www.w3.org/1999/02/22-rdf-syntax-ns#"
     xmlns:svg="http://www.w3.org/2000/svg"
     xmlns="http://www.w3.org/2000/svg"
     xmlns:xlink="http://www.w3.org/1999/xlink"
     id="svg5090"
     version="1.0"
     viewBox="0 0 200 200">
    <metadata
    	http-equiv="Etag"
	content="2018-12-22"
         id="metadata4996">
        <rdf:RDF>
            <cc:Work
                 rdf:about="">
                <dc:format>image/svg+xml</dc:format>
                <dc:type
                     rdf:resource="http://purl.org/dc/dcmitype/StillImage" />
                <dc:title></dc:title>
            </cc:Work>
        </rdf:RDF>
    </metadata>
    <defs
         id="defs5044">
        <linearGradient
             x1="277.49"
             x2="286.71"
             gradientTransform="matrix(.74743 0 0 1.3379 .25 132)"
             y1="794.37"
             gradientUnits="userSpaceOnUse"
             y2="776.56"
             id="lg1">
            <stop
                 id="stop4998"
                 offset="0"
                 stop-color="#fdf064" />
            <stop
                 id="stop5000"
                 offset="1"
                 stop-color="#c68200" />
        </linearGradient>
        <linearGradient
             y2="819.09"
             x2="249.34"
             gradientTransform="matrix(1.305 0 0 1.6824 -94.534 -146.67)"
             y1="768.04"
             gradientUnits="userSpaceOnUse"
             xlink:href="#G9"
             x1="296.14"
             id="G0">
            <stop
                 id="stop5003"
                 offset="0"
                 stop-color="#5e0000" />
            <stop
                 id="stop5005"
                 offset="1"
                 stop-color="#ae0800" />
        </linearGradient>
        <linearGradient
             x1="433.23"
             x2="504.9"
             gradientTransform="matrix(.44846 0 0 2.2298 0 280)"
             y1="408.78"
             gradientUnits="userSpaceOnUse"
             y2="408.78"
             id="G1">
            <stop
                 id="stop5008"
                 offset="0"
                 stop-color="#fff" />
            <stop
                 id="stop5010"
                 offset="1"
                 stop-color="#fff"
                 stop-opacity="0" />
        </linearGradient>
        <linearGradient
             x1="121.74"
             x2="116.15"
             gradientTransform="matrix(1.9585 0 0 .51059 0 280)"
             y1="1726.7"
             gradientUnits="userSpaceOnUse"
             y2="1719"
             id="G2">
            <stop
                 id="stop5013"
                 offset="0"
                 stop-color="#ebebe2" />
            <stop
                 id="stop5015"
                 offset="1"
                 stop-color="#bcbc8e" />
        </linearGradient>
        <linearGradient
             x1="250.29"
             x2="252.1"
             gradientTransform="matrix(1.2358 0 0 1.7765 -94.534 -365.96)"
             y1="868.12"
             xlink:href="#G1"
             y2="885.65"
             id="G5" />
        <linearGradient
             x1="126.14"
             x2="115.17"
             gradientTransform="matrix(2.8714 0 0 .76460 -94.534 -354.11)"
             y1="1985.5"
             xlink:href="#G1"
             y2="1976.4"
             id="G6" />
        <radialGradient
             r="44.525"
             gradientTransform="matrix(2.163 0 0 1.015 -66.004 -546.87)"
             cx="169.88"
             cy="1794.9"
             gradientUnits="userSpaceOnUse"
             id="G7">
            <stop
                 id="stop5020"
                 offset="0"
                 stop-opacity=".4" />
            <stop
                 id="stop5022"
                 offset="1"
                 stop-opacity="0" />
        </radialGradient>
        <linearGradient
             y2="1082.9"
             x2="211.85"
             gradientTransform="matrix(1.176 0 0 .85037 0 280)"
             y1="1137.6"
             gradientUnits="userSpaceOnUse"
             spreadMethod="reflect"
             x1="205.99"
             id="G9">
            <stop
                 id="stop5025"
                 offset="0"
                 stop-color="#568953" />
            <stop
                 id="stop5027"
                 offset="1"
                 stop-color="#1b4c1f" />
        </linearGradient>
        <linearGradient
             x1="143.16"
             x2="164.79"
             gradientTransform="matrix(2.3929 0 0 .91744 -94.534 -354.11)"
             y1="1700.8"
             xlink:href="#G1"
             y2="1776.3"
             id="G11" />
        <linearGradient
             x1="191.07"
             x2="191.07"
             gradientTransform="matrix(2.0184 0 0 1.0877 -94.534 -354.11)"
             y1="1478.2"
             xlink:href="#lg1"
             y2="1444.9"
             id="G12" />
        <linearGradient
             x1="140.26"
             x2="157.33"
             gradientTransform="matrix(2.2443 0 0 .97821 -94.534 -354.11)"
             y1="1696.2"
             xlink:href="#G2"
             y2="1634.5"
             id="G13" />
        <linearGradient
             y2="61416"
             x2="5533.4"
             gradientTransform="matrix(1.4448 0 0 1.5195 -94.534 -561.54)"
             y1="61604"
             gradientUnits="userSpaceOnUse"
             x1="5262.4"
             id="G15" />
        <linearGradient
             y2="985.93"
             x2="226.88"
             gradientTransform="matrix(1.3443 0 0 1.6331 -94.534 -354.11)"
             y1="1000.9"
             spreadMethod="reflect"
             xlink:href="#lg1"
             x1="223.66"
             id="G16" />
        <linearGradient
             x1="211.96"
             x2="212.01"
             gradientTransform="matrix(1.4301 0 0 1.5352 -94.534 -354.11)"
             y1="1048.1"
             xlink:href="#G1"
             y2="1068.4"
             id="G17" />
        <linearGradient
             x1="196.65"
             x2="182.97"
             gradientTransform="matrix(2.0184 0 0 1.0877 -94.534 -354.11)"
             y1="1437.3"
             xlink:href="#G1"
             y2="1493.9"
             id="G18" />
        <linearGradient
             y2="776.56"
             x2="286.71"
             gradientTransform="matrix(1.1075 0 0 1.9823 -94.164 -365.96)"
             y1="794.37"
             gradientUnits="userSpaceOnUse"
             xlink:href="#lg1"
             x1="277.49"
             id="lg4" />
        <linearGradient
             x1="175.51"
             x2="167.52"
             gradientTransform="matrix(2.2443 0 0 .97821 -94.534 -354.11)"
             y1="1674.5"
             xlink:href="#G1"
             y2="1667"
             id="lg5" />
        <linearGradient
             x1="241.41"
             x2="243.66"
             gradientTransform="matrix(1.4689 0 0 1.4946 -94.534 -354.11)"
             y1="998.7"
             xlink:href="#G1"
             y2="1051.4"
             id="lg7" />
        <linearGradient
             x1="433.23"
             y1="408.78"
             gradientTransform="matrix(.66448 0 0 3.3039 -94.534 -146.67)"
             x2="504.9"
             gradientUnits="userSpaceOnUse"
             xlink:href="#G1"
             y2="408.78"
             id="linearGradient4538" />
        <linearGradient
             x1="205.99"
             y1="1137.6"
             gradientTransform="matrix(1.7425 0 0 1.26 -94.534 -146.67)"
             x2="211.85"
             gradientUnits="userSpaceOnUse"
             spreadMethod="reflect"
             xlink:href="#G9"
             y2="1082.9"
             id="linearGradient4542" />
        <linearGradient
             x1="121.74"
             x2="116.15"
             gradientTransform="matrix(2.902 0 0 .75655 -94.534 -146.67)"
             y1="1726.7"
             gradientUnits="userSpaceOnUse"
             xlink:href="#G2"
             y2="1719"
             id="linearGradient72" />
        <linearGradient
             x1="131.92"
             x2="189.14"
             gradientTransform="matrix(2.2443 0 0 .97821 -94.534 -146.67)"
             y1="1448.5"
             xlink:href="#G2"
             y2="1448.5"
             id="linearGradient74" />
    </defs>
    <g
         id="g5088"
         transform="matrix(.67490 0 0 .67490 4.1983 -3.8518)"
         style="stroke-width:1.4817">
        <g
             id="g5059"
             transform="matrix(2.3964,0,0,2.3964,-440.31,-2735.1)"
             style="stroke-width:1.4817">
            <path
                 id="path5046"
                 d="m202.47 1162 46.06-10.6 14.17 3.5-3.54 56.7-42.52 17.7-14.17-10.6z"
                 style="stroke:#000000;stroke-width:1.4817;fill:url(#G0)" />
            <path
                 id="path5048"
                 d="m203.93 1163.2v54.3l12.86 9.6v-58.9c-6.59-0.1-11.4-3.1-12.86-5z"
                 style="opacity:.5;stroke-width:1.4817;fill:url(#linearGradient4538)" />
            <path
                 d="m207.06 1162.3c1.91 2 5.06 3.8 9.45 3.9l42.77-11.7-9.22-2.2z"
                 style="stroke:#000000;stroke-width:1.4817;stroke-opacity:.2;fill:url(#linearGradient72)"
                 id="p2" />
            <path
                 id="path5051"
                 d="m218.75 1168.2 41.25-11.4-0.75 24.4c-1.42 26.9-31.08-18.8-40.5 16.3z"
                 style="opacity:.5;stroke-width:1.4817;fill:url(#lg7)" />
            <path
                 id="path5053"
                 d="m202.66 1172.3c3.53 3.4 8.66 5.9 13.96 5.8l-0.17 20.2c-4.66-0.5-11.08-2.9-13.61-6.7z"
                 style="stroke:#000000;stroke-width:1.4817;stroke-opacity:.39216;fill:url(#lg4)" />
            <path
                 id="path5055"
                 d="m203.85 1175.1c2.17 2.5 7.57 4.7 11.24 4.5 0 3.6 0.66 8.9-1.13 10.1-3.4 2.3-5.29-10.3-9.96-3.9-0.17-3.5 0.02-7.3-0.15-10.7z"
                 style="stroke-width:1.4817;fill:url(#G5)" />
            <use
                 id="use5057"
                 x="0"
                 y="0"
                 width="308.90109"
                 height="274.26697"
                 xlink:href="#p2"
                 style="stroke-width:1.4817;stroke-opacity:.2;fill:url(#G6)" />
        </g>
        <g
             id="g5063"
             transform="matrix(2.3964,0,0,2.3964,-440.31,-2735.1)"
             style="stroke-width:1.4817">
            <path
                 id="path5061"
                 transform="matrix(.57678 -.12442 -.026664 .73838 147.49 344.51)"
                 style="stroke-width:1.4817;fill:url(#G7)"
                 d="m313 1229.5c0 16.8-29.1 30.5-65 30.5s-65-13.7-65-30.5 29.1-30.5 65-30.5 65 13.7 65 30.5z" />
        </g>
        <g
             id="g5086"
             transform="matrix(2.3964,0,0,2.3964,-440.31,-2735.1)"
             style="stroke-width:1.4817">
            <path
                 id="path5065"
                 d="m199.43 1218.2 53.14-21.3 35.44 21.3v14.2l-53.15 28.3-35.43-28.3z"
                 style="stroke:#000000;stroke-width:1.4817;fill:url(#linearGradient4542)" />
            <path
                 d="m287.32 1219.6-52.5 26.8-34.64-25.5-0.36 8.9 35.18 28.1 52-27.5z"
                 style="stroke:#000000;stroke-width:2.9634;stroke-opacity:.19608;fill:url(#linearGradient74)"
                 id="p10" />
            <g
                 id="g5084"
                 style="stroke-width:1.4817">
                <path
                     id="path5068"
                     d="m203.65 1218.8 48.79-20.1 32.17 19.8c-6.25 3.2-15.54 7.6-21.21 8.5-25.44 3.8-17.33-13.1-59.75-8.2z"
                     style="opacity:.5;stroke-width:1.4817;fill:url(#G11)" />
                <path
                     id="path5070"
                     d="m252.25 1200.8-15.5 6.4 28.25 17.3 15-6.5z"
                     style="stroke:#000000;stroke-width:1.4817;stroke-opacity:.4;fill:url(#G12)" />
                <use
                     id="use5072"
                     x="0"
                     y="0"
                     width="308.90109"
                     height="274.26697"
                     xlink:href="#p10"
                     style="stroke:#000000;stroke-width:1.4817;stroke-opacity:.19608;fill:url(#G13)" />
                <path
                     id="path5074"
                     d="m287.32 1219.6-52.5 26.8 0.18 11.5 52-27.5z"
                     style="stroke-width:1.4817;fill:url(#lg5)" />
                <path
                     id="path5076"
                     d="m234.82 1246.4-34.64-25.5-0.36 8.9 35.18 28.1z"
                     style="stroke-width:1.4817;fill:url(#G15)" />
                <path
                     id="path5078"
                     d="m203.48 1227.2c3.36 2.8 6.72 5.5 10.08 8.3-4.23 1.4-4.95 16.8-14.18 17.7 1.57-5.2 1.64-8.3 1.71-12.3-2.43 1.5-6.36 2.7-8.79 1.7 6.73-4.9 7.45-14.5 11.18-15.4z"
                     style="stroke:#000000;stroke-width:1.4817;fill:url(#G16)" />
                <path
                     id="path5080"
                     d="m202.49 1229.6c-0.94 0.6-2.08 4.4-3.44 7.1 3.18-3.1 4.35 7.1 7.43 6.9 1.82-0.2 2.92-4.4 3.84-6.8 0.86-2.3-6.36-8.2-7.83-7.2z"
                     style="stroke-width:1.4817;fill:url(#G17)" />
                <path
                     id="path5082"
                     d="m252.12 1202.2-12.5 5.2c11.96-3.7 18.76 5.9 25.63 11.5 4.76 3.8 14.83-1 7.87-4.1z"
                     style="stroke-width:1.4817;fill:url(#G18)" />
            </g>
        </g>
    </g>
</svg>
