<?xml version="1.0" encoding="UTF-8" standalone="no"?>
<svg
     xmlns:dc="http://purl.org/dc/elements/1.1/"
     xmlns:cc="http://creativecommons.org/ns#"
     xmlns:rdf="http://www.w3.org/1999/02/22-rdf-syntax-ns#"
     xmlns:svg="http://www.w3.org/2000/svg"
     xmlns="http://www.w3.org/2000/svg"
     id="svg6392"
     viewBox="0 0 290 290"
     version="1.1">
    <defs
         id="defs6396" />
    <metadata
    	http-equiv="Etag"
	content="2018-12-22"
         id="metadata6378">
        <rdf:RDF>
            <cc:Work
                 rdf:about="">
                <dc:format>image/svg+xml</dc:format>
                <dc:type
                     rdf:resource="http://purl.org/dc/dcmitype/StillImage" />
                <dc:title></dc:title>
            </cc:Work>
        </rdf:RDF>
    </metadata>
    <g
         id="g6390"
         transform="matrix(1.1148 0 0 1.1148 -16.999 -16.565)"
         style="stroke:#bdbdbd;stroke-width:1.794">
        <circle
             style="stroke-linejoin:round;paint-order:fill markers stroke;stroke:#bdbdbd;stroke-linecap:square;stroke-width:1.794;fill:#5b5b5b"
             r="18.091"
             cy="144.93"
             cx="145.32"
             id="Surya" />
        <g
             style="stroke-width:1.794"
             id="Earth">
            <path
                 d="m57.406 74.625c-15.99 19.946-24.721 44.737-24.76 70.301 0.000331 62.225 50.444 112.67 112.67 112.67 62.225-0.00033 112.67-50.443 112.67-112.67 0.00075-62.225-50.443-112.67-112.67-112.67-22.338 0.03226-44.163 6.7041-62.701 19.168"
                 style="stroke-linejoin:round;paint-order:fill markers stroke;stroke:#bdbdbd;stroke-linecap:square;stroke-width:1.794;fill:none"
                 id="Earth-Orbit" />
            <circle
                 style="stroke-linejoin:round;paint-order:fill markers stroke;stroke:#bdbdbd;stroke-linecap:square;stroke-width:1.794;fill:#5b5b5b"
                 r="17.169"
                 cy="62.363"
                 cx="69.401"
                 id="Earth-Planet" />
        </g>
        <g
             style="stroke-width:1.794"
             id="Budha">
            <path
                 d="m108.56 176.99c9.257 10.636 22.659 16.753 36.76 16.775 26.971-0.00061 48.835-21.865 48.836-48.836 0.00047-26.972-21.864-48.837-48.836-48.838-26.973-0.000474-48.838 21.865-48.838 48.838 0.01646 5.6008 0.99624 11.157 2.8965 16.426"
                 style="stroke-linejoin:round;paint-order:fill markers stroke;stroke:#bdbdbd;stroke-linecap:square;stroke-width:1.794;fill:none"
                 id="Budha-Orbit" />
            <circle
                 style="stroke-linejoin:round;paint-order:fill markers stroke;stroke:#bdbdbd;stroke-linecap:square;stroke-width:1.794;fill:#5b5b5b"
                 r="9.1569"
                 cy="169.8"
                 cx="102.88"
                 id="Budha-Planet" />
        </g>
        <g
             style="stroke-width:1.794"
             id="Shukra">
            <path
                 d="m219.95 172.61c3.318-8.8536 5.0342-18.227 5.0684-27.682-0.00025-44.019-35.684-79.703-79.703-79.703-44.019-0.000836-79.705 35.684-79.705 79.703 0.000242 44.019 35.686 79.704 79.705 79.703 22.614-0.0332 44.149-9.6708 59.24-26.512"
                 style="stroke-linejoin:round;stroke-opacity:.99459;paint-order:fill markers stroke;stroke:#bdbdbd;stroke-linecap:square;stroke-width:1.794;fill:none"
                 id="Shukra-Orbit" />
            <ellipse
                 cx="212.65"
                 cy="185.6"
                 ry="14.896"
                 rx="14.972"
                 style="stroke-linejoin:round;paint-order:fill markers stroke;stroke:#bdbdbd;stroke-linecap:square;stroke-width:1.794;fill:#5b5b5b"
                 id="Shukra-Planet" />
        </g>
    </g>
</svg>
