<?xml version="1.0" encoding="UTF-8" standalone="no"?>
<svg
     xmlns:dc="http://purl.org/dc/elements/1.1/"
     xmlns:cc="http://creativecommons.org/ns#"
     xmlns:rdf="http://www.w3.org/1999/02/22-rdf-syntax-ns#"
     xmlns:svg="http://www.w3.org/2000/svg"
     xmlns="http://www.w3.org/2000/svg"
     xmlns:xlink="http://www.w3.org/1999/xlink"
     Etag="2018-12-26"
     id="svg6576"
     version="1.1"
     viewBox="0 0 120 120">
    <defs
         id="defs6556">
        <linearGradient
             id="linearGradient2758">
            <stop
                 id="stop6508"
                 offset="0"
                 stop-opacity=".504"
                 stop-color="#fff" />
            <stop
                 id="stop6510"
                 offset="1"
                 stop-opacity="0"
                 stop-color="#fff" />
        </linearGradient>
        <pattern
             patternTransform="matrix(57.613 0 0 57.613 13.14 -1620.1)"
             xlink:href="#Strips1_1"
             id="pattern2556" />
        <linearGradient
             id="linearGradient939">
            <stop
                 id="stop6514"
                 offset="0"
                 stop-color="#54371f" />
            <stop
                 id="stop6516"
                 offset="1"
                 stop-color="#fff" />
        </linearGradient>
        <pattern
             height="1"
             patternTransform="translate(0) scale(10)"
             patternUnits="userSpaceOnUse"
             width="2"
             id="Strips1_1">
            <rect
                 id="rect6519"
                 height="2"
                 x="0"
                 width="1"
                 y="-.5" />
        </pattern>
        <radialGradient
             r="3.9434"
             gradientTransform="matrix(5.9104,2.535,-2.9697,6.9241,874.05,-1974.3)"
             cx="6.6073"
             cy="290.25"
             gradientUnits="userSpaceOnUse"
             id="radialGradient7385">
            <stop
                 id="stop6522"
                 offset="0"
                 stop-opacity=".33725"
                 stop-color="#fff" />
            <stop
                 id="stop6524"
                 offset="1"
                 stop-opacity=".8902"
                 stop-color="#729fcf" />
        </radialGradient>
        <linearGradient
             x1="6.251"
             y1="293.01"
             gradientTransform="matrix(5.7613 0 0 5.7613 13.14 -1618.3)"
             x2="5.8208"
             gradientUnits="userSpaceOnUse"
             xlink:href="#linearGradient939"
             y2="289.4"
             id="linearGradient907" />
        <linearGradient
             x1="6.9761"
             y1="293.01"
             gradientTransform="matrix(5.7613 0 0 5.7613 13.14 -1618.3)"
             x2="7.3414"
             gradientUnits="userSpaceOnUse"
             xlink:href="#linearGradient939"
             y2="289.4"
             id="linearGradient915" />
        <linearGradient
             x1="6.99"
             y1="295.22"
             gradientTransform="matrix(5.7613 0 0 5.7613 13.088 -1617.2)"
             x2="8.5753"
             gradientUnits="userSpaceOnUse"
             spreadMethod="reflect"
             y2="295.18"
             id="linearGradient2642">
            <stop
                 id="stop6529"
                 offset="0"
                 stop-color="#fff6bb" />
            <stop
                 id="stop6531"
                 offset="1"
                 stop-opacity=".012"
                 stop-color="#ffe110" />
        </linearGradient>
        <linearGradient
             x1="6.5031"
             y1="292.82"
             gradientTransform="matrix(5.7565 0 0 6.4842 13.16 -1828.2)"
             x2="7.6407"
             gradientUnits="userSpaceOnUse"
             spreadMethod="reflect"
             xlink:href="#linearGradient2758"
             y2="292.84"
             id="linearGradient2739" />
        <radialGradient
             r="5.1408"
             gradientTransform="matrix(7.2425 .093809 -.017476 1.3492 11.295 -306.24)"
             cx="7.1301"
             cy="304.04"
             gradientUnits="userSpaceOnUse"
             id="radialGradient2825">
            <stop
                 id="stop6535"
                 offset="0"
                 style="stop-color:#230f00;stop-opacity:.83554"
                 stop-color="#230f00" />
            <stop
                 id="stop6537"
                 offset="1"
                 stop-opacity=".008"
                 stop-color="#fff" />
        </radialGradient>
        <linearGradient
             x1="6.9772"
             y1="292.86"
             gradientTransform="matrix(5.7565 0 0 6.4842 13.16 -1828.2)"
             x2="7.6407"
             gradientUnits="userSpaceOnUse"
             spreadMethod="reflect"
             xlink:href="#linearGradient2758"
             y2="292.84"
             id="linearGradient4559" />
        <linearGradient
             x1="5.4482"
             y1="292.27"
             gradientTransform="matrix(6.3928 0 0 6.3928 10.892 -1797.3)"
             x2="7.1158"
             gradientUnits="userSpaceOnUse"
             y2="292.27"
             id="linearGradient5283">
            <stop
                 id="stop6541"
                 offset="0"
                 stop-color="#a88a75" />
            <stop
                 id="stop6543"
                 offset="1"
                 stop-opacity="0"
                 stop-color="#a88a75" />
        </linearGradient>
        <linearGradient
             x1="3.7879"
             x2="11.172"
             gradientTransform="matrix(5.7613 0 0 5.7613 13.102 -1620.1)"
             y1="286.5"
             gradientUnits="userSpaceOnUse"
             y2="293.53"
             id="linearGradient5098">
            <stop
                 id="stop6546"
                 offset="0"
                 style="stop-color:#acd4ff"
                 stop-color="#729fcf" />
            <stop
                 id="stop6548"
                 offset="1"
                 style="stop-color:#a3bdde"
                 stop-color="#3465a4" />
        </linearGradient>
        <radialGradient
             r="3.5538"
             gradientTransform="matrix(8.3562 .018254 -.024578 11.251 5.6524 -3207)"
             cx="6.3004"
             cy="290.12"
             gradientUnits="userSpaceOnUse"
             id="radialGradient75">
            <stop
                 id="stop6551"
                 offset="0"
                 style="stop-color:#fffffd" />
            <stop
                 id="stop6553"
                 offset="1"
                 style="stop-color:#fffffd;stop-opacity:.569" />
        </radialGradient>
    </defs>
    <metadata
    	http-equiv="Etag"
	content="2018-12-26"
         id="metadata6558">
        <rdf:RDF>
            <cc:Work
                 rdf:about="">
                <dc:format>image/svg+xml</dc:format>
                <dc:type
                     rdf:resource="http://purl.org/dc/dcmitype/StillImage" />
                <dc:title></dc:title>
            </cc:Work>
        </rdf:RDF>
    </metadata>
    <g
         transform="matrix(1.2506 0 0 1.2506 -10.96 -19.043)"
         style="stroke-width:.7996"
         id="Lightbulb">
        <path
             d="m53.004 16.526c-10.637 1.7553-19.72 9.6636-22.418 20.799-2.2727 9.3805 0.52962 18.807 7.2755 26.034 5.2617 5.7719 7.0006 9.7075 7.3459 14.832 0 0-0.004 5.5984 0.90064 6.8956 5.1676 5.0334 17.428 5.2331 22.727 0.60522 0.76178-1.2466 0.98035-4.7646 1.2666-6.9238 0.73559-5.5493 1.66-8.1805 7.2474-15.606 3.6732-3.9888 5.948-8.1485 7.0785-12.877 3.553-14.858-5.595-29.776-20.447-33.351-3.714-0.894-7.431-0.993-10.977-0.408z"
             style="stroke:url(#linearGradient5098);stroke-width:1.1522;fill:url(#radialGradient75)"
             id="Bulb-Glass-Highlight" />
        <path
             d="m97.441 103.43a40.701 8.2748 0 0 0 -40.701 -8.2748 40.701 8.2748 0 0 0 -40.701 8.2748 40.701 8.2748 0 0 0 40.701 8.2748 40.701 8.2748 0 0 0 40.701 -8.2748z"
             style="opacity:.504;stroke-width:6.3928;paint-order:fill markers stroke;fill:url(#radialGradient2825)"
             id="Shadow" />
        <path
             d="m51.261 98.315c-0.17429 7.411 12.788 7.6447 12.616 0.04788z"
             style="stroke:#5a5350;stroke-width:1.4067px;fill:#d1bfa7"
             id="Screw-Contact" />
        <path
             d="m47.18 84.404s-4.5507 2.8134 0.08793 5.443c-3.0806 1.8395-4.3111 2.6677-0.07635 5.4707-4.4356 2.3446 0.05581 4.3763 0.05581 4.3763 6.4885 2.8467 13.685 3.0498 20.788 0.08475 0 0 6.7677-3.1682 0.04197-6.3675 2.3276-1.6475 5.436-1.8604 0.13058-4.9319 4.7876-1.5972-0.03534-4.1163-0.03534-4.1163-4.1074-2.8759-15.028-3.6638-20.992 0.03997z"
             style="stroke:#e8af1c;stroke-width:1.5267;paint-order:fill markers stroke;stroke-linecap:round;fill:#ffda51"
             id="Screw-Body" />
        <path
             d="m47.131 84.244s-4.5507 2.8134 0.08793 5.443c-3.0806 1.8395-4.3111 2.6678-0.07635 5.4708-4.4356 2.3445 0.0558 4.3762 0.0558 4.3762 6.4885 2.8467 13.685 3.0498 20.788 0.08475 0 0 6.7677-3.1681 0.04197-6.3675 2.3276-1.6475 5.0113-2.1451-0.29405-5.2166 4.7876-1.5972 0.38933-3.8315 0.38933-3.8315-4.1073-2.876-15.028-3.6639-20.992 0.03997z"
             style="stroke:#e9b014;stroke-width:1.5267;paint-order:fill markers stroke;stroke-linecap:round;fill:url(#linearGradient2642)"
             id="Screw-Body-Highlight" />
        <path
             d="m70.096 78.727c-0.28621 2.1592-0.4973 5.6873-1.2591 6.9339-5.2992 4.6279-17.553 4.4232-22.721-0.61002-0.90503-1.2792-0.90903-6.8757-0.90903-6.8757-0.3453-5.125-2.0896-9.0567-7.3512-14.828-6.7459-7.2276-9.5436-16.651-7.2711-26.032 3.5974-14.848 18.54-23.977 33.393-20.402 14.853 3.5753 24.005 18.504 20.452 33.362-1.1306 4.7283-3.4118 8.8809-7.085 12.87-5.5874 7.4262-6.5133 10.055-7.2488 15.604z"
             style="opacity:.26;stroke:url(#pattern2556);stroke-width:1.1522;fill:#ffc803"
             id="Bulb-Glow" />
        <path
             d="m 53.366,16.526 c -10.637,1.7553 -19.72,9.6636 -22.418,20.799 -2.2727,9.3805 0.52962,18.807 7.2755,26.034 5.2617,5.7719 7.0006,9.7075 7.3459,14.832 0,0 -0.004,5.5984 0.90064,6.8956 5.1676,5.0334 17.428,5.2331 22.727,0.60522 0.76178,-1.2466 0.98035,-4.7646 1.2666,-6.9238 0.73559,-5.5493 1.66,-8.1805 7.2474,-15.606 3.6732,-3.9888 5.948,-8.1485 7.0785,-12.877 3.553,-14.858 -5.594,-29.776 -20.447,-33.351 -3.713,-0.894 -7.431,-0.993 -10.976,-0.408 z"
             style="fill:url(#radialGradient7385)"
             id="Bulb-Glass" />
        <path
             d="m64.337 87.222 0.04759-19.557c-3.9311-3.1167-9.2292-3.1085-13.152 0.38134l-0.182 18.756"
             style="stroke:#a88a75;stroke-width:1.6174;paint-order:normal;stroke-opacity:.596;fill:url(#linearGradient2739)"
             id="Innards-Base" />
        <path
             d="m54.418 66.015-5.592-16.07"
             style="stroke:url(#linearGradient907);stroke-width:1.5267;stroke-linecap:round;fill:none"
             id="Innards-Left-Stalk" />
        <path
             d="m66.373 49.706-4.597 16.377"
             style="stroke:url(#linearGradient915);stroke-width:1.5244px;stroke-linecap:round;fill:none"
             id="Innards-Right-Stalk" />
        <path
             d="m51.051 86.802 0.18164-18.756c3.9226-3.4899 9.2206-3.4981 13.152-0.38136l-0.04757 19.557"
             style="opacity:.526;stroke-opacity:.596;paint-order:markers fill stroke;stroke:url(#linearGradient5283);stroke-width:1.6165px;fill:url(#linearGradient4559)"
             id="Innards-Base-Reflection" />
        <path
             d="m66.373 49.72s-2.5969-1.2246-3.5276-3.3593c-2.8134 1.6674-3.8612 0.78183-5.4399-0.14789-1.5106 1.0481-3.4814 2.225-5.1608 0.27342-1.4672 2.6876-3.4187 3.4591-3.4187 3.4591"
             style="stroke:#ffffff;stroke-width:1.7284;stroke-linecap:round;fill:none"
             id="Innards-Fillament" />
        <path
             d="m62.801 24.93a8.9623 14.429 59.46 0 1 -10.872 14.721 8.9623 14.429 59.46 0 1 -15.236 -3.159 8.9623 14.429 59.46 0 1 10.872 -14.721 8.9623 14.429 59.46 0 1 15.236 3.159z"
             style="opacity:.37;stroke-width:6.3424;paint-order:stroke fill markers;fill:#ffffff"
             id="Bulb-Reflection" />
        <path
             d="m48.928 89.681c2.0578 0.13672 3.8617 1.4783 5.863 1.9764 1.9785 0.49249 4.0104 0.75713 6.0358 0.99138 2.183 0.25264 6.5775 0.44772 6.5775 0.44772s-5.3862 0.73554-8.0917 0.66438c-2.2334-0.05597-4.5062-0.24305-6.6419-0.8988-1.3975-0.42933-4.4894-1.9557-4.4894-1.9557-1.3113-0.35578-0.03614-0.68197-0.29287-1.0227 0 0 0.68737-0.22546 1.0397-0.20227z"
             style="stroke-width:6.3928;fill:#e9b014"
             id="Screw-Thread-One" />
        <path
             d="m48.748 95.357s5.3192 1.2717 8.4179 1.6131c3.3011 0.36377 10.749 0.45971 10.749 0.45971s-6.6194 1.0433-9.9522 0.98203c-2.8236-0.04797-5.4564-0.09114-7.8941-1.3073-0.46021-0.22946-2.6064-1.0516-2.6064-1.0516z"
             style="stroke-width:6.3928;fill:#e9b014"
             id="Screw-Thread-Two" />
    </g>
</svg>
