<?xml version="1.0" encoding="UTF-8" standalone="no"?>
<svg
     xmlns:dc="http://purl.org/dc/elements/1.1/"
     xmlns:cc="http://creativecommons.org/ns#"
     xmlns:rdf="http://www.w3.org/1999/02/22-rdf-syntax-ns#"
     xmlns:svg="http://www.w3.org/2000/svg"
     xmlns="http://www.w3.org/2000/svg"
     xmlns:xlink="http://www.w3.org/1999/xlink"
     id="svg6060"
     version="1.1"
     viewBox="0 0 120 120"
     height="120"
     width="120">
    <defs
         id="defs6054">
        <filter
             style="color-interpolation-filters:sRGB;opacity:1"
             id="filter8289"
             x="-0.66353295"
             width="2.3270659"
             y="-0.66366707"
             height="2.3273341">
            <feGaussianBlur
                 stdDeviation="2.6718433"
                 id="feGaussianBlur8291" />
        </filter>
        <filter
             style="color-interpolation-filters:sRGB;opacity:1"
             id="filter8355"
             x="-0.62880018"
             width="2.2576004"
             y="-0.62879982"
             height="2.2575996">
            <feGaussianBlur
                 stdDeviation="1.7905036"
                 id="feGaussianBlur8357" />
        </filter>
        <filter
             style="color-interpolation-filters:sRGB;opacity:1"
             id="filter9569"
             x="-0.5532"
             width="2.1064"
             y="-0.5532"
             height="2.1064">
            <feGaussianBlur
                 stdDeviation="1.9912144"
                 id="feGaussianBlur9571" />
        </filter>
        <filter
             style="color-interpolation-filters:sRGB;opacity:1"
             id="filter10365"
             x="-0.47519992"
             width="1.9503998"
             y="-0.47520008"
             height="1.9504002">
            <feGaussianBlur
                 stdDeviation="1.8195116"
                 id="feGaussianBlur10367" />
        </filter>
        <filter
             style="color-interpolation-filters:sRGB;opacity:1"
             id="filter11115"
             x="-0.79088597"
             width="2.5817719"
             y="-0.79071405"
             height="2.5814281">
            <feGaussianBlur
                 stdDeviation="2.9568127"
                 id="feGaussianBlur11117" />
        </filter>
        <filter
             style="color-interpolation-filters:sRGB;opacity:1"
             id="filter12271"
             x="-0.0061234592"
             width="1.0122469"
             y="-0.0058814207"
             height="1.0117628">
            <feGaussianBlur
                 stdDeviation="0.29146729"
                 id="feGaussianBlur12273" />
        </filter>
        <filter
             style="color-interpolation-filters:sRGB;opacity:1"
             id="filter12275"
             x="-0.26510636"
             width="1.5302127"
             y="-0.26510636"
             height="1.5302127">
            <feGaussianBlur
                 stdDeviation="0.29146729"
                 id="feGaussianBlur12277" />
        </filter>
        <filter
             style="color-interpolation-filters:sRGB;opacity:1"
             id="filter12279"
             x="-0.0085289218"
             width="1.0170578"
             y="-0.0062157379"
             height="1.0124315">
            <feGaussianBlur
                 stdDeviation="0.29146729"
                 id="feGaussianBlur12281" />
        </filter>
    </defs>
    <metadata
    	http-equiv="Etag"
	content="2018-12-22"
         id="metadata6057">
        <rdf:RDF>
            <cc:Work
                 rdf:about="">
                <dc:format>image/svg+xml</dc:format>
                <dc:type
                     rdf:resource="http://purl.org/dc/dcmitype/StillImage" />
                <dc:title></dc:title>
            </cc:Work>
        </rdf:RDF>
    </metadata>
    <path
         d="m 33.274171,2.7656824 a 5.0005,5.0005 0 0 0 -0.171875,0.00781 c -2.323303,0.1620442 -4.290502,2.014241 -4.896484,4.2382813 -0.980549,-0.7997436 -2.15553,-1.360871 -3.425782,-1.359375 a 5.0005,5.0005 0 0 0 -0.0039,0 c -2.95379,0.00542 -5.634462,2.6950158 -5.634765,5.6484373 2.98e-4,2.953425 2.680972,5.643014 5.634765,5.648438 a 5.0005,5.0005 0 0 0 0.0039,0 c 2.337065,0.0028 4.451413,-1.692111 5.261719,-3.855469 1.015893,1.272737 2.497886,2.179856 4.132813,2.179688 2.825942,2.84e-4 5.396776,-2.570543 5.396484,-5.3964848 8.7e-5,-0.8653149 -0.29918,-1.6707889 -0.714844,-2.4218752 -0.463467,-2.5349708 -2.749248,-4.6818778 -5.353515,-4.6894531 -0.07636,-4.575e-4 -0.152205,-0.00269 -0.228516,0 z m 0.896484,1.7148438 0.175782,0.00391 c -0.05291,-0.00183 -0.10526,2.693e-4 -0.158204,0 -0.0061,-1.83e-5 -0.01147,-0.00391 -0.01758,-0.00391 z M 30.641359,20.716854 c -1.34453,8.3e-5 -2.600561,0.605478 -3.603516,1.494141 -0.106997,-0.0068 -0.202762,-0.0683 -0.310547,-0.06836 h -0.0039 c -3.082332,0.0016 -5.887058,2.80634 -5.888672,5.888672 0,6.47e-4 0,0.0013 0,0.002 0,6.47e-4 0,0.0013 0,0.002 0.0016,3.083626 2.808719,5.88941 5.892578,5.888672 1.653299,-8.66e-4 3.185425,-0.838634 4.289063,-2.0625 2.781808,-0.221969 5.238103,-2.722497 5.238281,-5.53125 -1.86e-4,-2.938891 -2.674391,-5.613095 -5.613281,-5.613281 z m 60.078124,15.789062 a 5.0005,5.0005 0 0 0 -0.160156,0.0078 c -2.750589,0.185753 -5.130828,2.733578 -5.128906,5.490234 0,6.47e-4 -10e-7,0.0013 0,0.002 10e-7,6.47e-4 -10e-7,0.0013 0,0.002 0.0036,2.305982 1.705953,4.373638 3.855469,5.13086 0.231336,0.828686 0.608994,1.596662 1.189453,2.242187 -0.662061,0.950732 -1.14829,2.01886 -1.148438,3.183594 4.7e-5,0.373976 0.158594,0.716764 0.236328,1.078125 -0.726123,0.956048 -1.250124,2.063649 -1.251953,3.269531 -0.0033,2.000586 1.260175,3.805512 2.960938,4.832032 -1.923338,0.369341 -3.590737,1.733675 -4.306641,3.55664 -2.208588,0.776166 -3.957058,2.900668 -3.957031,5.269531 -3.9e-5,2.952447 2.686225,5.638711 5.638672,5.638672 2.306536,3.1e-5 4.402736,-1.652266 5.230469,-3.777343 2.195252,-0.777703 3.932608,-2.891724 3.9375,-5.248047 a 5.0005,5.0005 0 0 0 0,-0.0039 c 0.002,-1.962596 -1.232936,-3.734289 -2.896485,-4.75 2.602949,-0.485636 4.808032,-2.838322 4.804688,-5.515626 -2.23e-4,-0.197949 -0.101633,-0.375457 -0.125,-0.570312 0.92741,-1.0544 1.56037,-2.370293 1.56055,-3.779297 -2.1e-4,-1.631361 -0.80542,-3.154316 -1.99805,-4.259765 0.424097,-0.761668 0.729136,-1.580216 0.728515,-2.458985 a 5.0005,5.0005 0 0 0 0,-0.01367 c -0.0083,-2.247871 -1.643423,-4.274921 -3.726562,-5.048828 -0.610246,-2.341505 -2.762621,-4.266037 -5.210938,-4.277344 -0.07771,-5.53e-4 -0.154758,-0.0027 -0.232422,0 z m -33.966796,0.949219 a 5.0005,5.0005 0 0 0 -0.171875,0.0078 c -2.793282,0.195041 -5.205089,2.787819 -5.197266,5.58789 a 5.0005,5.0005 0 0 0 0,0.002 c 0.0036,1.224273 0.545239,2.350747 1.304687,3.304688 0.69769,2.213513 2.781645,3.995519 5.13086,4 2.866834,0.0055 5.47813,-2.605823 5.472656,-5.472656 -0.0019,-0.997468 -0.398361,-1.911858 -0.933594,-2.746094 -0.481768,-2.532851 -2.76666,-4.674653 -5.373046,-4.683594 -0.0772,-4.97e-4 -0.155264,-0.0027 -0.232422,0 z M 34.75464,37.914119 c -2.857966,0.0062 -5.452004,2.610898 -5.447266,5.46875 0.0062,2.850873 2.596393,5.441047 5.447266,5.447266 0.456499,7.57e-4 0.882349,-0.160812 1.316406,-0.283203 -0.964355,1.103779 -1.6239,2.474668 -1.623047,3.945313 0,6.47e-4 0,0.0013 0,0.002 10e-7,6.47e-4 -1e-6,0.0013 0,0.002 0.0034,3.243244 2.953788,6.192313 6.197266,6.193359 a 5.0005,5.0005 0 0 0 0.0039,0 c 3.244125,-0.001 6.195042,-2.951304 6.197266,-6.195312 0.0031,-3.247374 -2.949775,-6.204033 -6.197266,-6.205079 a 5.0005,5.0005 0 0 0 -0.0039,0 c -0.599835,1.94e-4 -1.165538,0.193797 -1.728516,0.378907 0.765532,-0.941745 1.303986,-2.066847 1.306641,-3.285157 0.0048,-2.864948 -2.603801,-5.473509 -5.46875,-5.46875 z m 23.0625,1.519532 0.191406,0.0039 c -0.05794,-0.0021 -0.115856,2.38e-4 -0.173828,0 -0.0061,-10e-6 -0.01148,-0.0039 -0.01758,-0.0039 z m 36.625,0.974609 0.179687,0.0039 c -0.05417,-0.0019 -0.107906,2.93e-4 -0.162109,0 -0.0061,-1.9e-5 -0.01148,-0.0039 -0.01758,-0.0039 z m -42.074219,4.474609 c -6e-6,0.0027 0.002,0.0051 0.002,0.0078 -2e-6,0.0027 -0.002,0.0051 -0.002,0.0078 z m 38.572266,2.613282 c 0.02103,0.0034 0.02103,-0.0034 0,0 z m -25.732422,1.625 c -3.150168,-3.57e-4 -6.015982,2.865457 -6.015625,6.015625 -3.57e-4,3.150167 2.865457,6.015981 6.015625,6.015625 3.150167,3.56e-4 6.015981,-2.865458 6.015625,-6.015625 3.56e-4,-3.150168 -2.865458,-6.015982 -6.015625,-6.015625 z M 60.096437,71.50201 c -2.279414,-0.0022 -4.403124,1.548024 -5.333985,3.603516 -1.358873,0.252273 -2.557899,0.989479 -3.427734,2.076172 -2.887922,0.337995 -5.402512,2.928998 -5.40625,5.861328 -0.0033,3.140332 2.851854,6.001079 5.992187,6.003906 2.121805,0.0015 4.038887,-1.349909 5.109375,-3.164063 1.500266,-0.433639 2.781259,-1.458965 3.53125,-2.835937 2.848917,-0.274715 5.347506,-2.831631 5.351563,-5.714844 0.0029,-3.049047 -2.767361,-5.825792 -5.816406,-5.830078 z m -5.832032,5.824219 c 1e-6,0.0021 0.002,0.0038 0.002,0.0059 2e-6,0.0021 -0.002,0.0038 -0.002,0.0059 z m 5.832032,5.822266 c 0.02103,0.0034 0.02103,-0.0034 0,0 z m 11.933593,10.71875 a 5.0005,5.0005 0 0 0 -0.18164,0.0098 c -2.827604,0.206757 -5.261973,2.832828 -5.253907,5.667964 0.0041,1.507911 0.713129,2.934561 1.791016,3.982421 -0.01856,0.17928 -0.115174,0.34179 -0.115234,0.52344 a 5.0005,5.0005 0 0 0 0,0.004 c 0.001,3.16091 2.876196,6.03607 6.037109,6.03711 a 5.0005,5.0005 0 0 0 0.0039,0 c 3.160916,-0.001 6.036093,-2.8762 6.03711,-6.03711 a 5.0005,5.0005 0 0 0 0,-0.004 c -6.07e-4,-1.82954 -1.016884,-3.48678 -2.441407,-4.623051 -0.06372,-2.919501 -2.701793,-5.550122 -5.626953,-5.560539 -0.08302,-6.13e-4 -0.167029,-0.003 -0.25,0 z m -25.888671,8.966795 c -3.32908,-0.001 -6.198202,3.04992 -6.199219,6.23243 -0.0015,3.18556 2.870372,6.24199 6.203125,6.23828 3.328296,-0.004 6.192146,-3.05853 6.189453,-6.24024 -0.0022,-3.1785 -2.864506,-6.22617 -6.189453,-6.23047 z"
         id="Stars-Glow"
         style="opacity:1;vector-effect:none;fill:#8faef5;fill-opacity:0.19583333;stroke:none;stroke-width:1;stroke-linecap:round;stroke-linejoin:round;stroke-miterlimit:4;stroke-dasharray:none;stroke-dashoffset:0;stroke-opacity:0.74405595;paint-order:fill markers stroke;filter:url(#filter12279)"
         xlink:href="#Stars" />
    <path
         d="m 33.283203,8.2304688 a 0.50005,0.50005 0 0 0 -0.01758,0.00195 c -0.526154,0.036698 -0.980367,0.5233486 -0.980469,1.0507812 -5.01e-4,0.5519908 0.500855,1.0540659 1.052735,1.0546879 -0.112875,0.151258 -0.209601,0.320387 -0.208985,0.509765 6.84e-4,0.469035 0.427338,0.894971 0.896485,0.894532 0.469763,4.38e-4 0.896924,-0.426722 0.896484,-0.896485 4.16e-4,-0.444744 -0.390619,-0.825472 -0.830078,-0.8671874 0.177208,-0.1912031 0.302972,-0.4337802 0.302734,-0.6953125 a 0.50005,0.50005 0 0 0 0,-0.00195 c -0.0014,-0.5513685 -0.503317,-1.0512834 -1.054687,-1.0507812 -0.0189,-3.508e-4 -0.03775,-6.664e-4 -0.05664,0 z m -8.646484,2.8906252 c -0.600669,0.0011 -1.147193,0.547768 -1.146485,1.148437 -7.09e-4,0.60067 0.545816,1.147335 1.146485,1.148438 0.601822,7.09e-4 1.149147,-0.546615 1.148437,-1.148438 7.09e-4,-0.601821 -0.546616,-1.149146 -1.148437,-1.148437 z m 5.855469,15.064453 c -0.582887,3.6e-5 -1.113245,0.530395 -1.113282,1.113281 3.7e-5,0.582887 0.530395,1.113245 1.113282,1.113281 0.582885,-3.6e-5 1.113244,-0.530395 1.113281,-1.113281 -3.7e-5,-0.582886 -0.530396,-1.113244 -1.113281,-1.113281 z m -3.916016,1.425781 c -0.72824,-1.74e-4 -1.390799,0.662385 -1.390625,1.390625 -1.74e-4,0.72824 0.662385,1.390799 1.390625,1.390625 0.72824,1.74e-4 1.390799,-0.662385 1.390625,-1.390625 1.74e-4,-0.72824 -0.662385,-1.390799 -1.390625,-1.390625 z m 64.152344,14.359375 a 0.50005,0.50005 0 0 0 -0.01563,0.002 c -0.499699,0.03375 -0.932396,0.495258 -0.931641,0.996094 3.98e-4,0.523573 0.478383,0.999698 1.001953,0.998047 0.521538,-0.0015 0.995695,-0.476397 0.996094,-0.998047 -3.99e-4,-0.522267 -0.47578,-0.997648 -0.998047,-0.998047 -0.01761,-3.1e-4 -0.03514,-6.21e-4 -0.05273,0 z m -33.966797,0.949219 a 0.50005,0.50005 0 0 0 -0.01758,0.002 c -0.542944,0.03791 -1.011287,0.541674 -1.009766,1.085937 0.0017,0.567541 0.518394,1.082241 1.085937,1.082032 0.567544,2.1e-4 1.084254,-0.51449 1.085938,-1.082032 a 0.50005,0.50005 0 0 0 0,-0.002 c 2.08e-4,-0.568748 -0.517189,-1.086146 -1.085938,-1.085937 -0.01949,-3.68e-4 -0.03911,-6.83e-4 -0.05859,0 z m -22.148438,0.460937 c -0.502248,0.0018 -0.95853,0.460531 -0.957031,0.962891 0.0018,0.500888 0.457984,0.956396 0.958984,0.957031 0.502249,3.74e-4 0.960302,-0.456625 0.960938,-0.958984 3.77e-4,-0.502993 -0.457945,-0.961315 -0.960938,-0.960938 z m 23.015625,1.521485 a 0.50005,0.50005 0 0 0 -0.01953,0.002 c -0.478256,0.0354 -0.889951,0.477561 -0.890625,0.957031 -0.0012,0.503739 0.457198,0.963883 0.960938,0.964844 0.50375,4.5e-5 0.962936,-0.45914 0.96289,-0.962891 -9.62e-4,-0.503738 -0.461106,-0.962105 -0.964844,-0.960937 -0.01647,-2.54e-4 -0.03237,-5.92e-4 -0.04883,0 z m 36.619141,0.974609 a 0.50005,0.50005 0 0 0 -0.01758,0.002 c -0.470262,0.03292 -0.876358,0.468041 -0.876953,0.939453 -3.5e-4,0.494222 0.449137,0.943708 0.943359,0.94336 0.494222,3.48e-4 0.943709,-0.449138 0.943359,-0.94336 a 0.50005,0.50005 0 0 0 0,-0.002 c -0.0018,-0.492834 -0.450522,-0.939803 -0.943359,-0.939453 -0.0163,-2.71e-4 -0.03253,-5.75e-4 -0.04883,0 z m -53.75,5.880859 c -0.445235,1.44e-4 -0.888553,0.182963 -1.203125,0.498047 -0.314572,0.315085 -0.496675,0.757891 -0.496094,1.203125 1.44e-4,0.444773 0.183545,0.88667 0.498047,1.201172 0.314502,0.314502 0.756399,0.497904 1.201172,0.498047 0.444773,-1.43e-4 0.88667,-0.183545 1.201172,-0.498047 0.314502,-0.314502 0.497903,-0.756399 0.498047,-1.201172 5.81e-4,-0.445234 -0.181522,-0.88804 -0.496094,-1.203125 -0.314572,-0.315084 -0.757891,-0.497903 -1.203125,-0.498047 z m 54.595703,0.359376 c -0.741365,9.3e-5 -1.415922,0.67465 -1.416016,1.416015 9.3e-5,0.741366 0.67465,1.415923 1.416016,1.416016 0.741366,-9.3e-5 1.415923,-0.67465 1.416016,-1.416016 -9.4e-5,-0.741365 -0.674651,-1.415922 -1.416016,-1.416015 z m -30.035156,2.472656 c -0.793634,-9e-5 -1.515715,0.721991 -1.515625,1.515625 -9e-5,0.793633 0.721991,1.515715 1.515625,1.515625 0.793633,9e-5 1.515715,-0.721992 1.515625,-1.515625 9e-5,-0.793634 -0.721992,-1.515715 -1.515625,-1.515625 z m 28.810547,2.09375 c -0.631602,-0.001 -1.206322,0.573476 -1.207032,1.205078 -0.001,0.632714 0.574317,1.208072 1.207032,1.207031 0.631601,-7.09e-4 1.206116,-0.57543 1.205078,-1.207031 -7.09e-4,-0.630489 -0.574589,-1.20437 -1.205078,-1.205078 z m -1.832032,10.328125 c -0.592548,-6.06e-4 -1.131464,0.53831 -1.130859,1.130859 a 0.50005,0.50005 0 0 0 0,0.002 c 0.0012,0.591381 0.539477,1.127558 1.130859,1.126953 a 0.50005,0.50005 0 0 0 0.002,0 c 0.590215,-0.0012 1.125728,-0.536738 1.126954,-1.126953 a 0.50005,0.50005 0 0 0 0,-0.002 c 6.05e-4,-0.591382 -0.535572,-1.129632 -1.126954,-1.130859 a 0.50005,0.50005 0 0 0 -0.002,0 z m -3.539062,3.388672 c -0.596212,-8e-6 -1.138679,0.542459 -1.138672,1.138671 -8e-6,0.596213 0.542459,1.13868 1.138672,1.138672 0.596213,8e-6 1.13868,-0.542459 1.138672,-1.138672 7e-6,-0.596212 -0.54246,-1.138679 -1.138672,-1.138671 z M 59.941406,76.96875 c -0.694649,-4.07e-4 -1.327704,0.633365 -1.326172,1.328125 0.0012,0.693603 0.634412,1.323794 1.328125,1.322266 0.692557,-0.0012 1.322151,-0.631551 1.322266,-1.324219 4.05e-4,-0.692987 -0.62928,-1.324937 -1.322266,-1.326172 z m -4.443359,3.412109 c -0.595318,-1.87e-4 -1.136906,0.541401 -1.136719,1.136719 -1.87e-4,0.595318 0.541401,1.136906 1.136719,1.136719 0.595318,1.87e-4 1.136906,-0.541401 1.136719,-1.136719 1.87e-4,-0.595318 -0.541401,-1.136906 -1.136719,-1.136719 z m -3.722656,2.140625 c -0.782925,7.05e-4 -1.495389,0.71317 -1.496094,1.496094 -8.3e-4,0.783902 0.712192,1.497341 1.496094,1.498047 0.784879,8.31e-4 1.498877,-0.713168 1.498047,-1.498047 -7.06e-4,-0.783902 -0.714146,-1.496923 -1.498047,-1.496094 z m 20.271484,16.810547 a 0.50005,0.50005 0 0 0 -0.01953,0.002 c -0.582622,0.0426 -1.083693,0.583795 -1.082032,1.167966 0.0017,0.61049 0.557479,1.16418 1.167969,1.16407 0.610491,1.1e-4 1.166299,-0.55358 1.167969,-1.16407 a 0.50005,0.50005 0 0 0 0,-0.002 c 1.12e-4,-0.611625 -0.556343,-1.16808 -1.167969,-1.167969 -0.0225,-4.78e-4 -0.04391,-8.23e-4 -0.06641,0 z m 2.113281,4.150389 c -0.805691,2.7e-4 -1.538795,0.73337 -1.539062,1.53906 2.59e-4,0.8057 0.733366,1.5388 1.539062,1.53907 0.805697,-2.7e-4 1.538804,-0.73337 1.539063,-1.53907 -2.67e-4,-0.80569 -0.733371,-1.53879 -1.539063,-1.53906 z m -28.169922,4.82031 c -0.448466,-4.9e-4 -0.89228,0.19118 -1.205078,0.51368 -0.312798,0.32249 -0.492043,0.77043 -0.492187,1.2207 -5.46e-4,0.45072 0.177375,0.89959 0.490234,1.22266 0.312859,0.32306 0.758114,0.51417 1.207031,0.51367 0.448452,-2.6e-4 0.892807,-0.19264 1.205078,-0.51563 0.312272,-0.32298 0.490779,-0.77045 0.490235,-1.2207 -1.44e-4,-0.4498 -0.178023,-0.89829 -0.490235,-1.2207 -0.312211,-0.32242 -0.757077,-0.51342 -1.205078,-0.51368 z"
         id="Stars-Bigger"
         style="opacity:1;vector-effect:none;fill:#ffffff;fill-opacity:1;stroke:none;stroke-width:1;stroke-linecap:round;stroke-linejoin:round;stroke-miterlimit:4;stroke-dasharray:none;stroke-dashoffset:0;stroke-opacity:0.74405595;paint-order:fill markers stroke"
         xlink:href="#Stars" />
    <path
         d="m 89.136443,71.538498 a 0.63866359,0.63866359 0 0 1 -0.638663,0.638664 0.63866359,0.63866359 0 0 1 -0.638664,-0.638664 0.63866359,0.63866359 0 0 1 0.638664,-0.638664 0.63866359,0.63866359 0 0 1 0.638663,0.638664 z m 3.530172,-3.396759 a 0.63021559,0.63021559 0 0 1 -0.630215,0.630215 0.63021559,0.63021559 0 0 1 -0.630216,-0.630215 0.63021559,0.63021559 0 0 1 0.630216,-0.630216 0.63021559,0.63021559 0 0 1 0.630215,0.630216 z m 1.907909,-10.252403 a 0.70587152,0.70587152 0 0 1 -0.705872,0.705871 0.70587152,0.70587152 0 0 1 -0.705871,-0.705871 0.70587152,0.70587152 0 0 1 0.705871,-0.705872 0.70587152,0.70587152 0 0 1 0.705872,0.705872 z m 1.436158,-4.355751 a 0.91613108,0.91613108 0 0 1 -0.916131,0.916131 0.91613108,0.91613108 0 0 1 -0.916131,-0.916131 0.91613108,0.91613108 0 0 1 0.916131,-0.916131 0.91613108,0.91613108 0 0 1 0.916131,0.916131 z m -1.270943,-6.714417 a 0.44304702,0.44304702 0 0 1 -0.443047,0.443047 0.44304702,0.44304702 0 0 1 -0.443047,-0.443047 0.44304702,0.44304702 0 0 1 0.443047,-0.443047 0.44304702,0.44304702 0 0 1 0.443047,0.443047 z m -3.460832,-3.850567 a 0.4984279,0.4984279 0 0 1 -0.498428,0.498428 0.4984279,0.4984279 0 0 1 -0.498427,-0.498428 0.4984279,0.4984279 0 0 1 0.498427,-0.498428 0.4984279,0.4984279 0 0 1 0.498428,0.498428 z M 33.894425,9.2840099 A 0.5541842,0.5541842 0 0 1 33.34024,9.8381941 0.5541842,0.5541842 0 0 1 32.786056,9.2840099 0.5541842,0.5541842 0 0 1 33.34024,8.7298257 0.5541842,0.5541842 0 0 1 33.894425,9.2840099 Z m 0.527148,1.5611791 a 0.39611408,0.39611408 0 0 1 -0.396114,0.396114 0.39611408,0.39611408 0 0 1 -0.396114,-0.396114 0.39611408,0.39611408 0 0 1 0.396114,-0.396114 0.39611408,0.39611408 0 0 1 0.396114,0.396114 z m -9.136905,1.424321 a 0.64767468,0.64767468 0 0 1 -0.647675,0.647675 0.64767468,0.64767468 0 0 1 -0.647674,-0.647675 0.64767468,0.64767468 0 0 1 0.647674,-0.647674 0.64767468,0.64767468 0 0 1 0.647675,0.647674 z m 5.821001,15.028868 a 0.61331975,0.61331975 0 0 1 -0.613319,0.61332 0.61331975,0.61331975 0 0 1 -0.61332,-0.61332 0.61331975,0.61331975 0 0 1 0.61332,-0.61332 0.61331975,0.61331975 0 0 1 0.613319,0.61332 z m -3.638996,1.7031 a 0.89041185,0.89041185 0 0 1 -0.890411,0.890412 0.89041185,0.89041185 0 0 1 -0.890412,-0.890412 0.89041185,0.89041185 0 0 1 0.890412,-0.890412 0.89041185,0.89041185 0 0 1 0.890411,0.890412 z m 7.609052,15.339724 a 0.4595674,0.4595674 0 0 1 -0.459567,0.459567 0.4595674,0.4595674 0 0 1 -0.459568,-0.459567 0.4595674,0.4595674 0 0 1 0.459568,-0.459568 0.4595674,0.4595674 0 0 1 0.459567,0.459568 z m 22.330009,-0.336228 a 0.58572316,0.58572316 0 0 1 -0.585723,0.585724 0.58572316,0.58572316 0 0 1 -0.585723,-0.585724 0.58572316,0.58572316 0 0 1 0.585723,-0.585723 0.58572316,0.58572316 0 0 1 0.585723,0.585723 z m 0.735907,1.858544 a 0.46182019,0.46182019 0 0 1 -0.46182,0.46182 0.46182019,0.46182019 0 0 1 -0.46182,-0.46182 0.46182019,0.46182019 0 0 1 0.46182,-0.46182 0.46182019,0.46182019 0 0 1 0.46182,0.46182 z m -16.443427,7.594688 a 1.1996061,1.1996061 0 0 1 -1.199606,1.199606 1.1996061,1.1996061 0 0 1 -1.199606,-1.199606 1.1996061,1.1996061 0 0 1 1.199606,-1.199606 1.1996061,1.1996061 0 0 1 1.199606,1.199606 z m 24.376012,2.64682 a 1.0155101,1.0155101 0 0 1 -1.01551,1.01551 1.0155101,1.0155101 0 0 1 -1.01551,-1.01551 1.0155101,1.0155101 0 0 1 1.01551,-1.01551 1.0155101,1.0155101 0 0 1 1.01551,1.01551 z m -5.309327,22.189018 a 0.8243553,0.8243553 0 0 1 -0.824355,0.824356 0.8243553,0.8243553 0 0 1 -0.824355,-0.824356 0.8243553,0.8243553 0 0 1 0.824355,-0.824355 0.8243553,0.8243553 0 0 1 0.824355,0.824355 z m -4.630856,3.223946 a 0.63651907,0.63651907 0 0 1 -0.636519,0.636519 0.63651907,0.63651907 0 0 1 -0.636519,-0.636519 0.63651907,0.63651907 0 0 1 0.636519,-0.636519 0.63651907,0.63651907 0 0 1 0.636519,0.636519 z m -3.361077,2.499947 a 0.99699199,0.99699199 0 0 1 -0.996992,0.996992 0.99699199,0.99699199 0 0 1 -0.996992,-0.996992 0.99699199,0.99699199 0 0 1 0.996992,-0.996992 0.99699199,0.99699199 0 0 1 0.996992,0.996992 z m 20.007392,16.481113 a 0.66784722,0.66784722 0 0 1 -0.667847,0.66784 0.66784722,0.66784722 0 0 1 -0.667848,-0.66784 0.66784722,0.66784722 0 0 1 0.667848,-0.667851 0.66784722,0.66784722 0 0 1 0.667847,0.667851 z m 2.419836,4.522 a 1.0394045,1.0394045 0 0 1 -1.039405,1.0394 1.0394045,1.0394045 0 0 1 -1.039404,-1.0394 1.0394045,1.0394045 0 0 1 1.039404,-1.03941 1.0394045,1.0394045 0 0 1 1.039405,1.03941 z m -28.014589,5.01692 a 1.1959767,1.2347884 0 0 1 -1.195977,1.23479 1.1959767,1.2347884 0 0 1 -1.195977,-1.23479 1.1959767,1.2347884 0 0 1 1.195977,-1.23479 1.1959767,1.2347884 0 0 1 1.195977,1.23479 z"
         style="opacity:1;vector-effect:none;fill:#ffffff;fill-opacity:1;stroke:none;stroke-width:1;stroke-linecap:round;stroke-linejoin:round;stroke-miterlimit:4;stroke-dasharray:none;stroke-dashoffset:0;stroke-opacity:0.74405595;paint-order:fill markers stroke"
         id="Stars" />
    <path
         transform="translate(0.77334379,1.430099)"
         xlink:href=""
         style="display:inline;opacity:1;vector-effect:none;fill:#e5e5e5;fill-opacity:1;stroke:none;stroke-width:1;stroke-linecap:round;stroke-linejoin:round;stroke-miterlimit:4;stroke-dasharray:none;stroke-dashoffset:0;stroke-opacity:0.59538784;paint-order:fill markers stroke;filter:url(#filter12271)"
         id="Background-Stars"
         d="m 21.320312,-0.39453125 c -0.448367,2.3923e-4 -0.856805,0.40905658 -0.855468,0.85742187 2.4e-4,0.44736303 0.408105,0.85522818 0.855468,0.85546878 0.447364,-2.398e-4 0.855229,-0.40810524 0.855469,-0.85546878 0.0013,-0.4483658 -0.407101,-0.85718345 -0.855469,-0.85742187 z m 6.064454,0.31445313 c -0.45144,-0.0013463 -0.863058,0.40988651 -0.863282,0.86132812 2.24e-4,0.4514416 0.411842,0.8626744 0.863282,0.8613281 0.45044,-2.261e-4 0.861102,-0.4108875 0.861328,-0.8613281 -2.26e-4,-0.45044062 -0.410888,-0.86110205 -0.861328,-0.86132812 z M 55.408203,4.9316406 a 0.30003001,0.30003001 0 0 0 -0.01172,0.00195 c -0.387942,0.027498 -0.723197,0.3864756 -0.722656,0.7753906 4.52e-4,0.4063093 0.371035,0.7768927 0.777344,0.7773437 0.406309,-4.518e-4 0.776892,-0.371035 0.777344,-0.7773437 -4.52e-4,-0.4063088 -0.371035,-0.7768919 -0.777344,-0.7773438 -0.01469,-3.219e-4 -0.02829,-5.112e-4 -0.04297,0 z M 16.296875,6.8828125 a 0.30003001,0.30003001 0 0 0 -0.01172,0.00195 c -0.374237,0.026574 -0.697697,0.3728671 -0.697265,0.7480469 5.32e-4,0.3919308 0.358069,0.7494676 0.75,0.75 0.393015,0.00117 0.75142,-0.3569837 0.751953,-0.75 -5.33e-4,-0.3930163 -0.358938,-0.7511716 -0.751953,-0.75 -0.01403,-2.998e-4 -0.027,-4.872e-4 -0.04102,0 z m 26.447266,0.4746094 a 0.30003001,0.30003001 0 0 0 -0.01172,0.00195 c -0.433804,0.030765 -0.808743,0.4322937 -0.808594,0.8671875 -5.78e-4,0.4550583 0.414083,0.8701111 0.869141,0.8710937 0.456051,5.781e-4 0.871672,-0.4150425 0.871093,-0.8710937 -9.83e-4,-0.4550571 -0.416035,-0.8697181 -0.871093,-0.8691406 -0.01656,-3.788e-4 -0.03227,-5.682e-4 -0.04883,0 z m 65.013669,2.7324221 c -0.3245,0.02315 -0.60485,0.325065 -0.60351,0.65039 0.001,0.339318 0.31107,0.647022 0.65039,0.646485 0.33932,5.37e-4 0.64902,-0.307167 0.65039,-0.646485 a 0.30003001,0.30003001 0 0 0 0,-0.002 c 5.3e-4,-0.339026 -0.30773,-0.646248 -0.64649,-0.648437 -0.0132,-3.27e-4 -0.0278,-4.81e-4 -0.041,0 a 0.30003001,0.30003001 0 0 0 -0.01,0 z m 2.63867,4.05664 a 0.30003001,0.30003001 0 0 0 -0.0137,0.002 c -0.28856,0.02182 -0.53646,0.290695 -0.53515,0.580078 0.002,0.301012 0.27516,0.574562 0.57617,0.576172 a 0.30003001,0.30003001 0 0 0 0.002,0 c 0.30237,5.08e-4 0.57846,-0.273806 0.58008,-0.576172 a 0.30003001,0.30003001 0 0 0 0,-0.002 c 5e-4,-0.303718 -0.27636,-0.580585 -0.58008,-0.580078 -0.0101,-1.77e-4 -0.0192,-3.55e-4 -0.0293,0 z m 1.97657,0.982422 c -0.32026,-7.59e-4 -0.61209,0.291069 -0.61133,0.611328 a 0.30003001,0.30003001 0 0 0 0,0.002 c 0.001,0.318978 0.29235,0.608179 0.61133,0.607421 a 0.30003001,0.30003001 0 0 0 0.002,0 c 0.31769,-0.0013 0.60617,-0.289728 0.60742,-0.607421 a 0.30003001,0.30003001 0 0 0 0,-0.002 c 7.6e-4,-0.318974 -0.28845,-0.610066 -0.60742,-0.611328 a 0.30003001,0.30003001 0 0 0 -0.002,0 z m -9.56055,3.021485 c -0.39352,0 -0.78424,0.163147 -1.0625,0.441406 -0.27826,0.278259 -0.44141,0.668983 -0.44141,1.0625 0,0.393517 0.16315,0.784241 0.44141,1.0625 0.27826,0.278259 0.66898,0.441406 1.0625,0.441406 0.39352,0 0.78424,-0.163147 1.0625,-0.441406 0.27826,-0.278259 0.44141,-0.668983 0.44141,-1.0625 0,-0.393517 -0.16315,-0.784241 -0.44141,-1.0625 -0.27826,-0.278259 -0.66898,-0.441406 -1.0625,-0.441406 z m -93.4609375,0.34375 c -0.3359935,3.32e-4 -0.6708558,0.139134 -0.9082031,0.376953 -0.2373474,0.237819 -0.3753348,0.572209 -0.375,0.908203 3.32e-4,0.335569 0.1396701,0.668967 0.3769531,0.90625 0.237283,0.237283 0.5706813,0.376621 0.90625,0.376953 0.3359936,3.35e-4 0.6703835,-0.137653 0.9082035,-0.375 0.237819,-0.237347 0.37662,-0.57221 0.376953,-0.908203 3.35e-4,-0.336419 -0.139069,-0.670319 -0.376953,-0.908203 C 10.021882,18.63321 9.6879809,18.493805 9.3515625,18.494141 Z M 106.625,19.878906 a 0.30003001,0.30003001 0 0 0 -0.01,0.002 c -0.27039,0.02016 -0.50486,0.269963 -0.50585,0.541016 -0.002,0.285769 0.25914,0.548114 0.54492,0.548828 0.28587,4.38e-4 0.54731,-0.260999 0.54687,-0.546875 -7.1e-4,-0.28577 -0.26306,-0.546481 -0.54883,-0.544922 -0.009,-1.04e-4 -0.0186,-3.12e-4 -0.0273,0 z m 1.60156,0.75 a 0.30003001,0.30003001 0 0 0 -0.0117,0.002 c -0.33139,0.02342 -0.61779,0.329892 -0.61718,0.66211 2.2e-4,0.347128 0.31693,0.663835 0.66406,0.664062 0.34759,5.15e-4 0.66579,-0.316361 0.66601,-0.664062 -2.2e-4,-0.348317 -0.31965,-0.665703 -0.66796,-0.664063 -0.0114,-1.9e-4 -0.0218,-3.99e-4 -0.0332,0 z m -8.28906,0.417969 a 0.30003001,0.30003001 0 0 0 -0.01172,0.002 c -0.30609,0.02147 -0.570658,0.304486 -0.570312,0.611328 4.24e-4,0.32038 0.292901,0.612857 0.613281,0.613282 0.32093,4.53e-4 0.61481,-0.292242 0.61523,-0.613282 -4.2e-4,-0.321655 -0.29553,-0.61486 -0.617183,-0.613281 -0.01002,-1.47e-4 -0.01928,-3.44e-4 -0.0293,0 z m 15.23242,0.21875 c -0.34618,1.17e-4 -0.66199,0.315924 -0.66211,0.662109 1.2e-4,0.346185 0.31593,0.661993 0.66211,0.66211 0.34619,-1.17e-4 0.66199,-0.315925 0.66211,-0.66211 -1.2e-4,-0.346185 -0.31592,-0.661992 -0.66211,-0.662109 z m -5.08398,0.283203 a 0.30003001,0.30003001 0 0 0 -0.0117,0.002 c -0.29141,0.02088 -0.54368,0.289975 -0.54492,0.582031 -0.001,0.306953 0.27898,0.588866 0.58593,0.589844 0.30695,4e-6 0.5879,-0.28094 0.58789,-0.58789 -9.7e-4,-0.306959 -0.28288,-0.587062 -0.58984,-0.585938 -0.009,-1.27e-4 -0.018,-3.19e-4 -0.0273,0 z m -5.75586,2.896484 a 0.30003001,0.30003001 0 0 0 -0.0117,0.002 c -0.25108,0.01854 -0.46837,0.252151 -0.4668,0.503906 0.002,0.261017 0.23899,0.498414 0.5,0.5 0.26263,9.22e-4 0.50425,-0.23738 0.50586,-0.5 9.3e-4,-0.264237 -0.24162,-0.506784 -0.50586,-0.50586 -0.007,-7.2e-5 -0.0142,-2.47e-4 -0.0215,0 z m 5.65039,0.125 a 0.30003001,0.30003001 0 0 0 -0.0117,0.002 c -0.2759,0.01933 -0.51431,0.274208 -0.51367,0.550781 3e-5,0.288971 0.26376,0.552695 0.55273,0.552734 0.28898,-2.7e-5 0.5527,-0.263756 0.55274,-0.552734 -4e-5,-0.288978 -0.26376,-0.552707 -0.55274,-0.552735 -0.009,-1.56e-4 -0.0179,-3.3e-4 -0.0273,0 z m -20.072267,2.158204 a 0.30003001,0.30003001 0 0 0 -0.0098,0.002 c -0.277303,0.01892 -0.518569,0.276742 -0.517579,0.554687 0.0019,0.288896 0.265787,0.551147 0.554688,0.550782 0.288901,3.65e-4 0.552822,-0.261886 0.554687,-0.550782 a 0.30003001,0.30003001 0 0 0 0,-0.002 c 3.62e-4,-0.290318 -0.264369,-0.555049 -0.554687,-0.554687 -0.0094,-1.55e-4 -0.01792,-3.27e-4 -0.02734,0 z m -2.890625,2.326172 c -0.281245,0.02056 -0.524539,0.282459 -0.523437,0.564453 0.0018,0.294038 0.270409,0.560918 0.564453,0.560547 0.294044,3.71e-4 0.562638,-0.266509 0.564453,-0.560547 a 0.30003001,0.30003001 0 0 0 0,-0.002 c 3.66e-4,-0.293931 -0.26689,-0.560146 -0.560547,-0.5625 -0.01139,-2.69e-4 -0.02377,-4.23e-4 -0.03516,0 a 0.30003001,0.30003001 0 0 0 -0.0098,0 z M 3.6289062,29.349609 c -0.3268323,10e-6 -0.6249895,0.298168 -0.625,0.625 1.9e-6,0.0653 0.054568,0.11302 0.076172,0.173829 -0.1566691,-0.112924 -0.3352073,-0.195506 -0.5292969,-0.195313 -0.5000347,9.91e-4 -0.9555771,0.456996 -0.9550781,0.957031 -4.99e-4,0.500036 0.4550434,0.95604 0.9550781,0.957032 0.5009841,4.99e-4 0.9575305,-0.456048 0.9570313,-0.957032 1.465e-4,-0.147039 -0.049083,-0.28517 -0.1171875,-0.414062 0.079497,0.039 0.1488965,0.103513 0.2382812,0.103515 0.3268331,-9e-6 0.6249906,-0.298167 0.625,-0.625 -1.04e-5,-0.326832 -0.2981676,-0.62499 -0.625,-0.625 z m 97.5976538,2.660157 a 0.30003001,0.30003001 0 0 0 -0.0117,0.002 c -0.26664,0.01897 -0.49748,0.265887 -0.49804,0.533203 8e-5,0.279476 0.25362,0.535816 0.5332,0.537109 0.28168,0.001 0.5401,-0.257379 0.53906,-0.539062 -0.001,-0.280203 -0.25886,-0.534241 -0.53906,-0.533203 -0.008,-8.8e-5 -0.0156,-2.62e-4 -0.0234,0 z m 2.22266,7.484375 a 0.30003001,0.30003001 0 0 0 -0.01,0.002 c -0.2627,0.01661 -0.49103,0.258348 -0.49218,0.521484 -0.002,0.277182 0.25211,0.531059 0.52929,0.529297 0.27432,-0.0017 0.52406,-0.253019 0.52344,-0.527344 -6.4e-4,-0.274145 -0.25125,-0.524754 -0.52539,-0.52539 -0.009,-1.36e-4 -0.0166,-3.05e-4 -0.0254,0 z m -97.6738294,0.07031 c -0.4855533,-3.38e-4 -0.9280727,0.442181 -0.9277344,0.927735 -3.375e-4,0.485552 0.4421816,0.928072 0.9277344,0.927734 0.4855529,3.38e-4 0.928072,-0.442182 0.9277344,-0.927734 3.383e-4,-0.485554 -0.442181,-0.928073 -0.9277344,-0.927735 z m 6.0800784,8.746094 a 0.30003001,0.30003001 0 0 0 -0.0098,0.002 c -0.306718,0.02078 -0.573351,0.305862 -0.572265,0.613281 7.22e-4,0.320281 0.292888,0.611728 0.613281,0.611328 0.321009,4e-4 0.613681,-0.292272 0.613281,-0.613281 4e-4,-0.321009 -0.292272,-0.613681 -0.613281,-0.613281 -0.0107,-1.93e-4 -0.02055,-3.69e-4 -0.03125,0 z m 48.757812,4.763672 c -0.353985,8.56e-4 -0.676764,0.323749 -0.675781,0.677734 8.54e-4,0.352815 0.322967,0.674928 0.675781,0.675781 0.353985,9.83e-4 0.676879,-0.321795 0.677735,-0.675781 9.86e-4,-0.355156 -0.322579,-0.678721 -0.677735,-0.677734 z m -41.585937,3.984375 a 0.30003001,0.30003001 0 0 0 -0.01172,0.002 c -0.36903,0.02669 -0.688055,0.368288 -0.6875,0.738281 4.27e-4,0.386886 0.353348,0.739807 0.740234,0.740234 0.386887,-4.27e-4 0.739807,-0.353348 0.740235,-0.740234 -4.28e-4,-0.386886 -0.353348,-0.739807 -0.740235,-0.740234 -0.01415,-3.1e-4 -0.02687,-5.03e-4 -0.04102,0 z m 35.02539,1.861328 c -0.35799,-6.61e-4 -0.684256,0.325603 -0.683593,0.683594 a 0.30003001,0.30003001 0 0 0 0,0.002 c 0.0012,0.356827 0.326765,0.680348 0.683593,0.679687 0.356829,6.62e-4 0.682429,-0.32286 0.683594,-0.679687 a 0.30003001,0.30003001 0 0 0 0,-0.002 c 6.62e-4,-0.357991 -0.325603,-0.684256 -0.683594,-0.683594 z m 9.751954,2.966797 a 0.30003001,0.30003001 0 0 0 -0.01172,0.002 c -0.341255,0.02382 -0.636338,0.339556 -0.636719,0.68164 -5.55e-4,0.358937 0.32661,0.686102 0.685547,0.685547 a 0.30003001,0.30003001 0 0 0 0.002,0 c 0.357776,-0.0013 0.682196,-0.327769 0.681641,-0.685547 a 0.30003001,0.30003001 0 0 0 0,-0.002 c -0.0013,-0.356617 -0.325024,-0.68038 -0.681641,-0.68164 -0.01353,-3.21e-4 -0.02554,-4.82e-4 -0.03906,0 z m 10.601562,0.792969 c -0.367881,0.0014 -0.701528,0.337194 -0.701172,0.705078 -3.55e-4,0.367883 0.333291,0.703653 0.701172,0.705078 a 0.30003001,0.30003001 0 0 0 0.002,0 c 0.369016,3.55e-4 0.705432,-0.336062 0.705078,-0.705078 3.55e-4,-0.369017 -0.336061,-0.705433 -0.705078,-0.705078 a 0.30003001,0.30003001 0 0 0 -0.002,0 z m -22.875,4.443359 a 0.30003001,0.30003001 0 0 0 -0.0098,0.002 c -0.342697,0.02332 -0.640719,0.340104 -0.640625,0.683594 -0.0011,0.360338 0.327162,0.688594 0.6875,0.6875 0.359182,-7.28e-4 0.686637,-0.328319 0.685547,-0.6875 -7.26e-4,-0.358025 -0.327522,-0.684821 -0.685547,-0.685547 -0.01283,-2.66e-4 -0.02428,-4.55e-4 -0.03711,0 z m 14.068359,12.117187 c -0.337544,-6.47e-4 -0.645178,0.306988 -0.644531,0.644532 -6.47e-4,0.337544 0.306987,0.645178 0.644531,0.644531 a 0.30003001,0.30003001 0 0 0 0.002,0 c 0.336324,-0.0013 0.641272,-0.308207 0.640626,-0.644531 6.46e-4,-0.336325 -0.304302,-0.643262 -0.640626,-0.644532 a 0.30003001,0.30003001 0 0 0 -0.002,0 z M 54.34375,80.087891 c -0.267662,0.01794 -0.50054,0.264941 -0.5,0.533203 5.4e-5,0.281235 0.257836,0.537436 0.539062,0.535156 0.279018,-0.0012 0.533141,-0.256027 0.533204,-0.535156 -6.3e-5,-0.278246 -0.25328,-0.530434 -0.53125,-0.533203 -0.01081,-2.51e-4 -0.02239,-4.06e-4 -0.0332,0 a 0.30003001,0.30003001 0 0 0 -0.0078,0 z m -16.525391,1.433593 c -0.327119,1.7e-4 -0.625668,0.297993 -0.626953,0.625 -0.0018,0.328983 0.297966,0.630694 0.626953,0.63086 0.328372,-1.64e-4 0.627625,-0.300647 0.626953,-0.628906 -1.68e-4,-0.327736 -0.299217,-0.626785 -0.626953,-0.626954 z m 58.392579,0.47461 a 0.30003001,0.30003001 0 0 0 -0.01172,0.002 c -0.288615,0.01978 -0.538193,0.286881 -0.539063,0.576172 -5.04e-4,0.303716 0.276362,0.580581 0.580078,0.580078 0.303717,5.04e-4 0.580582,-0.276361 0.580078,-0.580078 a 0.30003001,0.30003001 0 0 0 0,-0.002 c -0.0016,-0.302365 -0.27771,-0.576678 -0.580078,-0.576172 -0.01014,-1.78e-4 -0.01917,-3.55e-4 -0.0293,0 z m 7.197262,0.300781 c -0.28068,0.0215 -0.52234,0.281088 -0.52343,0.5625 -0.001,0.296811 0.26959,0.569399 0.5664,0.570313 0.29621,-9.01e-4 0.56655,-0.272265 0.56641,-0.56836 -9e-4,-0.293937 -0.26884,-0.560868 -0.5625,-0.564453 -0.0113,-2.64e-4 -0.0238,-4.15e-4 -0.0352,0 a 0.30003001,0.30003001 0 0 0 -0.0117,0 z M 56.972656,87.0625 c -0.280515,-6.08e-4 -0.536895,0.256486 -0.535156,0.537109 0.0017,0.279025 0.257974,0.532975 0.537109,0.53125 0.277533,-0.0017 0.530638,-0.255557 0.53125,-0.533203 5.98e-4,-0.27841 -0.252843,-0.533433 -0.53125,-0.535156 z m 21.642578,0.611328 a 0.30003001,0.30003001 0 0 0 -0.01172,0.002 c -0.35227,0.02431 -0.656626,0.350018 -0.65625,0.703125 4.81e-4,0.368432 0.336646,0.704597 0.705078,0.705078 0.368838,1.74e-4 0.70655,-0.336129 0.707031,-0.705078 -4.81e-4,-0.369566 -0.33942,-0.706377 -0.708984,-0.705078 -0.0119,-2.01e-4 -0.02326,-4.02e-4 -0.03516,0 z m -21.447265,1.117188 c -0.286796,7.06e-4 -0.548435,0.263988 -0.546875,0.550781 0.0018,0.284623 0.262139,0.544217 0.546875,0.544922 0.28535,-7.08e-4 0.546168,-0.261525 0.546875,-0.546875 4.36e-4,-0.28607 -0.260696,-0.548122 -0.546875,-0.548828 z m 33.089843,0.289062 a 0.30003001,0.30003001 0 0 0 -0.0098,0.002 c -0.248236,0.016 -0.464213,0.24539 -0.464844,0.494141 -2.71e-4,0.260863 0.239028,0.499446 0.5,0.498047 0.259941,-0.0012 0.495533,-0.24006 0.494141,-0.5 -0.0012,-0.258295 -0.235846,-0.492952 -0.494141,-0.494141 -0.0088,-1.62e-4 -0.01658,-3.07e-4 -0.02539,0 z m -33.287109,1.228516 c -0.318833,0.02382 -0.594712,0.318951 -0.59375,0.638672 -7.7e-5,0.335078 0.305547,0.640702 0.640625,0.640625 0.335079,7.7e-5 0.640702,-0.305547 0.640625,-0.640625 7.7e-5,-0.333577 -0.303417,-0.636032 -0.636719,-0.638672 -0.01338,-3.4e-4 -0.02764,-5.01e-4 -0.04102,0 a 0.30003001,0.30003001 0 0 0 -0.0098,0 z m -30.857422,1.064453 a 0.30003001,0.30003001 0 0 0 -0.01172,0.002 c -0.447585,0.03158 -0.834359,0.445833 -0.833984,0.894531 -7.67e-4,0.469499 0.426985,0.897667 0.896484,0.898438 0.470478,7.68e-4 0.899206,-0.42796 0.898438,-0.898438 -7.71e-4,-0.469499 -0.428938,-0.897251 -0.898438,-0.896484 -0.01723,-4.01e-4 -0.03356,-5.92e-4 -0.05078,0 z m -11.03125,2.853515 a 0.30003001,0.30003001 0 0 0 -0.0098,0.002 c -0.354243,0.0244 -0.660341,0.351949 -0.660157,0.707031 6.84e-4,0.371466 0.339472,0.710073 0.710938,0.708984 0.370337,-6.82e-4 0.708302,-0.338647 0.708984,-0.708984 -6.82e-4,-0.370338 -0.338647,-0.708302 -0.708984,-0.708985 -0.01317,-2.62e-4 -0.02785,-4.71e-4 -0.04102,0 z m 39.333985,0.3125 c -0.279413,-7.64e-4 -0.533968,0.253791 -0.533204,0.533204 -7.64e-4,0.279413 0.253791,0.533967 0.533204,0.533203 a 0.30003001,0.30003001 0 0 0 0.002,0 c 0.277917,-0.0016 0.530061,-0.255283 0.529297,-0.533203 7.64e-4,-0.277921 -0.25138,-0.531621 -0.529297,-0.533204 a 0.30003001,0.30003001 0 0 0 -0.002,0 z M 59.875,94.654297 c -0.314685,-1.51e-4 -0.601714,0.286877 -0.601562,0.601562 -1.53e-4,0.314686 0.286876,0.601714 0.601562,0.601563 0.314686,1.51e-4 0.601715,-0.286877 0.601562,-0.601563 1.52e-4,-0.314685 -0.286877,-0.601713 -0.601562,-0.601562 z m 6.105469,1.673828 c -0.34147,-4.26e-4 -0.65277,0.310874 -0.652344,0.652344 -4.25e-4,0.341469 0.310875,0.652769 0.652344,0.652343 a 0.30003001,0.30003001 0 0 0 0.002,0 c 0.34026,-0.0015 0.648864,-0.31208 0.648437,-0.652343 4.28e-4,-0.340264 -0.308176,-0.650875 -0.648437,-0.652344 a 0.30003001,0.30003001 0 0 0 -0.002,0 z M 77.541016,99.25 c -0.323294,0.02307 -0.603034,0.322369 -0.603516,0.646484 -5.33e-4,0.340526 0.309864,0.650926 0.650391,0.650396 0.340526,5.3e-4 0.650924,-0.30987 0.65039,-0.650396 a 0.30003001,0.30003001 0 0 0 0,-0.002 c -0.0014,-0.337814 -0.308937,-0.642353 -0.646484,-0.644531 -0.01322,-3.27e-4 -0.0278,-4.81e-4 -0.04102,0 a 0.30003001,0.30003001 0 0 0 -0.0098,0 z m -2.548828,9.91797 a 0.30003001,0.30003001 0 0 0 -0.0078,0.002 c -0.171261,0.007 -0.339492,0.0512 -0.482422,0.14649 -0.142929,0.0953 -0.269255,0.26387 -0.267578,0.46289 0.0012,0.20719 0.137319,0.37727 0.289063,0.4707 0.151743,0.0934 0.33125,0.13479 0.509765,0.13477 0.178515,2e-5 0.358022,-0.0413 0.509766,-0.13477 0.151743,-0.0934 0.287852,-0.26351 0.289062,-0.4707 9.18e-4,-0.20804 -0.136933,-0.38035 -0.289062,-0.47461 -0.152129,-0.0943 -0.330529,-0.13674 -0.509766,-0.13672 -0.01407,-2.3e-4 -0.02694,-3.1e-4 -0.04102,0 z m 9.660156,2.03125 c -0.4015,-1e-5 -0.767587,0.36608 -0.767578,0.76758 0,0.40149 0.366084,0.76758 0.767578,0.76758 0.401494,0 0.767578,-0.36609 0.767578,-0.76758 8e-6,-0.4015 -0.366079,-0.76759 -0.767578,-0.76758 z m -10.378906,1.35547 c -0.315448,0.002 -0.602676,0.29186 -0.601563,0.60742 0.002,0.31415 0.289252,0.60065 0.603516,0.60156 0.315448,-1e-5 0.604545,-0.28796 0.605468,-0.60351 -5e-6,-0.31613 -0.289338,-0.60546 -0.605468,-0.60547 z m -4.951172,0.74023 a 0.30003001,0.30003001 0 0 0 -0.01172,0.002 c -0.346354,0.0241 -0.645495,0.34421 -0.644531,0.6914 -1.35e-4,0.36273 0.330631,0.69349 0.693359,0.69336 0.362728,1.3e-4 0.693494,-0.33063 0.693359,-0.69336 1.35e-4,-0.36273 -0.330631,-0.69349 -0.693359,-0.69336 -0.01273,-2.6e-4 -0.02438,-4.4e-4 -0.03711,0 z m -28.320313,3.125 a 0.30003001,0.30003001 0 0 0 -0.01172,0.002 c -0.383296,0.0268 -0.714655,0.38139 -0.714843,0.76562 -5.02e-4,0.40285 0.366682,0.77003 0.769531,0.76953 0.402849,5e-4 0.770033,-0.36668 0.769531,-0.76953 -0.0012,-0.40178 -0.367748,-0.76808 -0.769531,-0.76758 -0.0148,-3.3e-4 -0.02818,-5.2e-4 -0.04297,0 z m 60.599607,0.73242 c -0.36353,1.9e-4 -0.69514,0.33178 -0.69531,0.69532 1.8e-4,0.36352 0.33179,0.69513 0.69531,0.69531 0.36353,-1.8e-4 0.69513,-0.33179 0.69532,-0.69531 -1.8e-4,-0.36354 -0.33179,-0.69513 -0.69532,-0.69532 z" />
    <g
         id="g5373"
         style="fill:#eaa612;fill-opacity:1;opacity:1"
         transform="translate(-0.27309741,0.94390727)">
        <path
             transform="translate(0,0.91705652)"
             xlink:href="#Orange01-Star"
             style="opacity:1;vector-effect:none;fill:#eaa612;fill-opacity:0.31728043;stroke:none;stroke-width:1;stroke-linecap:round;stroke-linejoin:round;stroke-miterlimit:4;stroke-dasharray:none;stroke-dashoffset:0;stroke-opacity:0.59538784;paint-order:fill markers stroke;filter:url(#filter8289)"
             id="Orange01-Glow"
             d="m 40.705078,47.654297 c -2.530779,-8.21e-4 -4.832852,2.301252 -4.832031,4.832031 -8.21e-4,2.53078 2.301252,4.832853 4.832031,4.832031 2.53078,8.22e-4 4.832853,-2.301251 4.832031,-4.832031 8.22e-4,-2.530779 -2.301251,-4.832852 -4.832031,-4.832031 z" />
        <circle
             r="1.8314368"
             cy="52.48597"
             cx="40.704994"
             id="Orange01-Star"
             style="opacity:1;vector-effect:none;fill:#f0c462;fill-opacity:1;stroke:none;stroke-width:1;stroke-linecap:round;stroke-linejoin:round;stroke-miterlimit:4;stroke-dasharray:none;stroke-dashoffset:0;stroke-opacity:0.59538784;paint-order:fill markers stroke" />
        <path
             xlink:href="#Orange02-Star"
             style="opacity:1;vector-effect:none;fill:#eaa612;fill-opacity:0.56657224;stroke:none;stroke-width:1;stroke-linecap:round;stroke-linejoin:round;stroke-miterlimit:4;stroke-dasharray:none;stroke-dashoffset:0;stroke-opacity:0.59538784;paint-order:fill markers stroke;filter:url(#filter8355)"
             id="Orange02-Glow"
             d="m 103.52344,17.75 c -1.78743,0.0014 -3.41268,1.626635 -3.41406,3.414062 -0.001,1.788997 1.62506,3.41853 3.41406,3.419922 1.79057,0.0011 3.421,-1.629349 3.41992,-3.419922 -0.001,-1.789002 -1.63092,-3.415144 -3.41992,-3.414062 z" />
        <circle
             r="1.4171133"
             cy="21.166597"
             cx="103.52602"
             id="Orange02-Star"
             style="opacity:1;vector-effect:none;fill:#f0bf54;fill-opacity:1;stroke:none;stroke-width:1;stroke-linecap:round;stroke-linejoin:round;stroke-miterlimit:4;stroke-dasharray:none;stroke-dashoffset:0;stroke-opacity:0.59538784;paint-order:fill markers stroke" />
        <circle
             r="0.90084082"
             cy="2.0000033"
             cx="22.021009"
             id="path5365"
             style="opacity:1;vector-effect:none;fill:#eaa612;fill-opacity:1;stroke:none;stroke-width:1;stroke-linecap:round;stroke-linejoin:round;stroke-miterlimit:4;stroke-dasharray:none;stroke-dashoffset:0;stroke-opacity:0.59538784;paint-order:fill markers stroke" />
        <path
             transform="translate(-0.20080692,0.97179078)"
             xlink:href="#Orange03-Star"
             style="opacity:1;vector-effect:none;fill:#eaa612;fill-opacity:0.23937677;stroke:none;stroke-width:1;stroke-linecap:round;stroke-linejoin:round;stroke-miterlimit:4;stroke-dasharray:none;stroke-dashoffset:0;stroke-opacity:0.59538784;paint-order:fill markers stroke;filter:url(#filter9569)"
             id="Orange03-Glow"
             d="m 52.074219,78.699219 c -2.261622,0.0016 -4.318104,2.060643 -4.316407,4.322265 0.0016,2.259492 2.056915,4.314759 4.316407,4.316407 2.261622,0.0017 4.320616,-2.054785 4.322265,-4.316407 0.0017,-2.263752 -2.058513,-4.323964 -4.322265,-4.322265 z" />
        <circle
             r="1.3193223"
             cy="83.048767"
             cx="51.999382"
             id="Orange03-Star"
             style="opacity:1;vector-effect:none;fill:#eaa612;fill-opacity:1;stroke:none;stroke-width:1;stroke-linecap:round;stroke-linejoin:round;stroke-miterlimit:4;stroke-dasharray:none;stroke-dashoffset:0;stroke-opacity:0.59538784;paint-order:fill markers stroke;filter:url(#filter12275)" />
    </g>
    <path
         xlink:href="#Blue01-Star"
         style="opacity:1;vector-effect:none;fill:#2aa3ec;fill-opacity:0.47875354;stroke:none;stroke-width:1;stroke-linecap:round;stroke-linejoin:round;stroke-miterlimit:4;stroke-dasharray:none;stroke-dashoffset:0;stroke-opacity:0.59538784;paint-order:fill markers stroke;filter:url(#filter10365)"
         id="Blue01-Glow"
         d="m 74.191406,100.51172 c -2.405435,0.002 -4.592882,2.19222 -4.591797,4.59766 0.0019,2.40356 2.188234,4.58994 4.591797,4.59179 2.405439,0.001 4.595801,-2.18636 4.597656,-4.59179 0.0011,-2.40732 -2.190345,-4.59875 -4.597656,-4.59766 z" />
    <circle
         style="opacity:1;vector-effect:none;fill:#abd3e5;fill-opacity:1;stroke:none;stroke-width:1;stroke-linecap:round;stroke-linejoin:round;stroke-miterlimit:4;stroke-dasharray:none;stroke-dashoffset:0;stroke-opacity:0.59538784;paint-order:fill markers stroke"
         id="Blue01-Star"
         cx="74.19429"
         cy="105.10671"
         r="1.5949807" />
    <path
         transform="translate(0.107862,-0.05163607)"
         xlink:href="#Blue02-Star"
         style="opacity:1;vector-effect:none;fill:#2aa3ec;fill-opacity:0.47875354;stroke:none;stroke-width:1;stroke-linecap:round;stroke-linejoin:round;stroke-miterlimit:4;stroke-dasharray:none;stroke-dashoffset:0;stroke-opacity:0.59538784;paint-order:fill markers stroke;filter:url(#filter11115)"
         id="path10373"
         d="m 65.148438,51.513672 c -2.347861,0.0012 -4.483127,2.136514 -4.484376,4.484375 -0.0018,2.349824 2.134551,4.488987 4.484376,4.490234 a 3.0003,3.0003 0 0 0 0.0039,0 c 2.349824,-0.0012 4.486212,-2.140411 4.484375,-4.490234 -0.0012,-2.34786 -2.136516,-4.483127 -4.484375,-4.484375 a 3.0003,3.0003 0 0 0 -0.0039,0 z" />
    <circle
         style="opacity:1;vector-effect:none;fill:#2aa3ec;fill-opacity:0.47875354;stroke:none;stroke-width:1;stroke-linecap:round;stroke-linejoin:round;stroke-miterlimit:4;stroke-dasharray:none;stroke-dashoffset:0;stroke-opacity:0.59538784;paint-order:fill markers stroke"
         id="Blue02-Star"
         cx="65.042542"
         cy="56.051991"
         r="1.4871187" />
</svg>
