<?xml version="1.0" encoding="UTF-8" standalone="no"?>
<svg
     xmlns:dc="http://purl.org/dc/elements/1.1/"
     xmlns:cc="http://creativecommons.org/ns#"
     xmlns:rdf="http://www.w3.org/1999/02/22-rdf-syntax-ns#"
     xmlns:svg="http://www.w3.org/2000/svg"
     xmlns="http://www.w3.org/2000/svg"
     xmlns:xlink="http://www.w3.org/1999/xlink"
     id="svg4640"
     version="1.1"
     viewBox="0 0 120 120"
     height="120"
     width="120">
    <defs
         id="defs4634" />
    <metadata
    	http-equiv="Etag"
	content="2018-12-22"
         id="metadata4637">
        <rdf:RDF>
            <cc:Work
                 rdf:about="">
                <dc:format>image/svg+xml</dc:format>
                <dc:type
                     rdf:resource="http://purl.org/dc/dcmitype/StillImage" />
                <dc:title></dc:title>
            </cc:Work>
        </rdf:RDF>
    </metadata>
    <g
         style="fill:#d6d8d6;fill-opacity:1;stroke-width:1.10879099;opacity:1"
         id="layer1-3"
         transform="matrix(0.90188321,0,0,0.90188321,5.0301413,2.4697)">
        <ellipse
             style="opacity:1;vector-effect:none;fill:#d6d8d6;fill-opacity:1;stroke:none;stroke-width:1.10879099;stroke-linecap:round;stroke-linejoin:round;stroke-miterlimit:4;stroke-dasharray:none;stroke-dashoffset:0;stroke-opacity:0.74405595;paint-order:fill markers stroke"
             id="path6716"
             cx="46.00053"
             cy="110.03539"
             rx="1.1959767"
             ry="1.2347884" />
        <circle
             style="opacity:1;vector-effect:none;fill:#d6d8d6;fill-opacity:1;stroke:none;stroke-width:1.10879099;stroke-linecap:round;stroke-linejoin:round;stroke-miterlimit:4;stroke-dasharray:none;stroke-dashoffset:0;stroke-opacity:0.74405595;paint-order:fill markers stroke"
             id="path6718"
             cx="74.160789"
             cy="105.02105"
             r="1.0394045" />
        <circle
             style="opacity:1;vector-effect:none;fill:#d6d8d6;fill-opacity:1;stroke:none;stroke-width:1.10879099;stroke-linecap:round;stroke-linejoin:round;stroke-miterlimit:4;stroke-dasharray:none;stroke-dashoffset:0;stroke-opacity:0.74405595;paint-order:fill markers stroke"
             id="path6720"
             cx="72.112511"
             cy="100.49905"
             r="0.66784722" />
        <circle
             style="opacity:1;vector-effect:none;fill:#d6d8d6;fill-opacity:1;stroke:none;stroke-width:1.10879099;stroke-linecap:round;stroke-linejoin:round;stroke-miterlimit:4;stroke-dasharray:none;stroke-dashoffset:0;stroke-opacity:0.74405595;paint-order:fill markers stroke"
             id="path6722"
             cx="51.775974"
             cy="84.017937"
             r="0.99699199" />
        <circle
             style="opacity:1;vector-effect:none;fill:#d6d8d6;fill-opacity:1;stroke:none;stroke-width:1.10879099;stroke-linecap:round;stroke-linejoin:round;stroke-miterlimit:4;stroke-dasharray:none;stroke-dashoffset:0;stroke-opacity:0.74405595;paint-order:fill markers stroke"
             id="path6724"
             cx="55.497524"
             cy="81.51799"
             r="0.63651907" />
        <circle
             style="opacity:1;vector-effect:none;fill:#d6d8d6;fill-opacity:1;stroke:none;stroke-width:1.10879099;stroke-linecap:round;stroke-linejoin:round;stroke-miterlimit:4;stroke-dasharray:none;stroke-dashoffset:0;stroke-opacity:0.74405595;paint-order:fill markers stroke"
             id="path6726"
             cx="59.940544"
             cy="78.294044"
             r="0.8243553" />
        <circle
             style="opacity:1;vector-effect:none;fill:#d6d8d6;fill-opacity:1;stroke:none;stroke-width:1.10879099;stroke-linecap:round;stroke-linejoin:round;stroke-miterlimit:4;stroke-dasharray:none;stroke-dashoffset:0;stroke-opacity:0.74405595;paint-order:fill markers stroke"
             id="path6728"
             cx="65.086746"
             cy="56.105026"
             r="1.0155101" />
        <circle
             style="opacity:1;vector-effect:none;fill:#d6d8d6;fill-opacity:1;stroke:none;stroke-width:1.10879099;stroke-linecap:round;stroke-linejoin:round;stroke-miterlimit:4;stroke-dasharray:none;stroke-dashoffset:0;stroke-opacity:0.74405595;paint-order:fill markers stroke"
             id="path6730"
             cx="40.498608"
             cy="53.458206"
             r="1.1996061" />
        <circle
             style="opacity:1;vector-effect:none;fill:#d6d8d6;fill-opacity:1;stroke:none;stroke-width:1.10879099;stroke-linecap:round;stroke-linejoin:round;stroke-miterlimit:4;stroke-dasharray:none;stroke-dashoffset:0;stroke-opacity:0.74405595;paint-order:fill markers stroke"
             id="path6732"
             cx="57.679821"
             cy="45.863518"
             r="0.46182019" />
        <circle
             style="opacity:1;vector-effect:none;fill:#d6d8d6;fill-opacity:1;stroke:none;stroke-width:1.10879099;stroke-linecap:round;stroke-linejoin:round;stroke-miterlimit:4;stroke-dasharray:none;stroke-dashoffset:0;stroke-opacity:0.74405595;paint-order:fill markers stroke"
             id="path6734"
             cx="56.820011"
             cy="44.004974"
             r="0.58572316" />
        <circle
             style="opacity:1;vector-effect:none;fill:#d6d8d6;fill-opacity:1;stroke:none;stroke-width:1.10879099;stroke-linecap:round;stroke-linejoin:round;stroke-miterlimit:4;stroke-dasharray:none;stroke-dashoffset:0;stroke-opacity:0.74405595;paint-order:fill markers stroke"
             id="path6740"
             cx="34.616158"
             cy="44.341202"
             r="0.4595674" />
        <circle
             style="opacity:1;vector-effect:none;fill:#d6d8d6;fill-opacity:1;stroke:none;stroke-width:1.10879099;stroke-linecap:round;stroke-linejoin:round;stroke-miterlimit:4;stroke-dasharray:none;stroke-dashoffset:0;stroke-opacity:0.74405595;paint-order:fill markers stroke"
             id="path6742"
             cx="26.576262"
             cy="29.001478"
             r="0.89041185" />
        <circle
             style="opacity:1;vector-effect:none;fill:#d6d8d6;fill-opacity:1;stroke:none;stroke-width:1.10879099;stroke-linecap:round;stroke-linejoin:round;stroke-miterlimit:4;stroke-dasharray:none;stroke-dashoffset:0;stroke-opacity:0.74405595;paint-order:fill markers stroke"
             id="path6744"
             cx="30.49235"
             cy="27.298378"
             r="0.61331975" />
        <circle
             style="opacity:1;vector-effect:none;fill:#d6d8d6;fill-opacity:1;stroke:none;stroke-width:1.10879099;stroke-linecap:round;stroke-linejoin:round;stroke-miterlimit:4;stroke-dasharray:none;stroke-dashoffset:0;stroke-opacity:0.74405595;paint-order:fill markers stroke"
             id="path6746"
             cx="24.636993"
             cy="12.26951"
             r="0.64767468" />
        <circle
             style="opacity:1;vector-effect:none;fill:#d6d8d6;fill-opacity:1;stroke:none;stroke-width:1.10879099;stroke-linecap:round;stroke-linejoin:round;stroke-miterlimit:4;stroke-dasharray:none;stroke-dashoffset:0;stroke-opacity:0.74405595;paint-order:fill markers stroke"
             id="path6748"
             cx="34.025459"
             cy="10.845189"
             r="0.39611408" />
        <circle
             style="opacity:1;vector-effect:none;fill:#d6d8d6;fill-opacity:1;stroke:none;stroke-width:1.10879099;stroke-linecap:round;stroke-linejoin:round;stroke-miterlimit:4;stroke-dasharray:none;stroke-dashoffset:0;stroke-opacity:0.74405595;paint-order:fill markers stroke"
             id="path6750"
             cx="33.34024"
             cy="9.2840099"
             r="0.5541842" />
        <circle
             style="opacity:1;vector-effect:none;fill:#d6d8d6;fill-opacity:1;stroke:none;stroke-width:1.10879099;stroke-linecap:round;stroke-linejoin:round;stroke-miterlimit:4;stroke-dasharray:none;stroke-dashoffset:0;stroke-opacity:0.74405595;paint-order:fill markers stroke"
             id="path6752"
             cx="90.780479"
             cy="42.968601"
             r="0.4984279" />
        <circle
             style="opacity:1;vector-effect:none;fill:#d6d8d6;fill-opacity:1;stroke:none;stroke-width:1.10879099;stroke-linecap:round;stroke-linejoin:round;stroke-miterlimit:4;stroke-dasharray:none;stroke-dashoffset:0;stroke-opacity:0.74405595;paint-order:fill markers stroke"
             id="path6754"
             cx="94.296692"
             cy="46.819168"
             r="0.44304702" />
        <circle
             style="opacity:1;vector-effect:none;fill:#d6d8d6;fill-opacity:1;stroke:none;stroke-width:1.10879099;stroke-linecap:round;stroke-linejoin:round;stroke-miterlimit:4;stroke-dasharray:none;stroke-dashoffset:0;stroke-opacity:0.74405595;paint-order:fill markers stroke"
             id="path6756"
             cx="95.094551"
             cy="53.533585"
             r="0.91613108" />
        <circle
             style="opacity:1;vector-effect:none;fill:#d6d8d6;fill-opacity:1;stroke:none;stroke-width:1.10879099;stroke-linecap:round;stroke-linejoin:round;stroke-miterlimit:4;stroke-dasharray:none;stroke-dashoffset:0;stroke-opacity:0.74405595;paint-order:fill markers stroke"
             id="path6760"
             cx="93.868652"
             cy="57.889336"
             r="0.70587152" />
        <circle
             style="opacity:1;vector-effect:none;fill:#d6d8d6;fill-opacity:1;stroke:none;stroke-width:1.10879099;stroke-linecap:round;stroke-linejoin:round;stroke-miterlimit:4;stroke-dasharray:none;stroke-dashoffset:0;stroke-opacity:0.74405595;paint-order:fill markers stroke"
             id="path6762"
             cx="92.0364"
             cy="68.141739"
             r="0.63021559" />
        <circle
             style="opacity:1;vector-effect:none;fill:#d6d8d6;fill-opacity:1;stroke:none;stroke-width:1.10879099;stroke-linecap:round;stroke-linejoin:round;stroke-miterlimit:4;stroke-dasharray:none;stroke-dashoffset:0;stroke-opacity:0.74405595;paint-order:fill markers stroke"
             id="path6764"
             cx="88.49778"
             cy="71.538498"
             r="0.63866359" />
    </g>
    <g
         id="layer1" />
    <g
         id="layer2" />
    <path
         d="m 21.320312,-0.39453125 c -0.448367,2.3923e-4 -0.856805,0.40905658 -0.855468,0.85742187 2.4e-4,0.44736303 0.408105,0.85522818 0.855468,0.85546878 0.447364,-2.398e-4 0.855229,-0.40810524 0.855469,-0.85546878 0.0013,-0.4483658 -0.407101,-0.85718345 -0.855469,-0.85742187 z m 6.064454,0.31445313 c -0.45144,-0.0013463 -0.863058,0.40988651 -0.863282,0.86132812 2.24e-4,0.4514416 0.411842,0.8626744 0.863282,0.8613281 0.45044,-2.261e-4 0.861102,-0.4108875 0.861328,-0.8613281 -2.26e-4,-0.45044062 -0.410888,-0.86110205 -0.861328,-0.86132812 z M 55.408203,4.9316406 a 0.30003001,0.30003001 0 0 0 -0.01172,0.00195 c -0.387942,0.027498 -0.723197,0.3864756 -0.722656,0.7753906 4.52e-4,0.4063093 0.371035,0.7768927 0.777344,0.7773437 0.406309,-4.518e-4 0.776892,-0.371035 0.777344,-0.7773437 -4.52e-4,-0.4063088 -0.371035,-0.7768919 -0.777344,-0.7773438 -0.01469,-3.219e-4 -0.02829,-5.112e-4 -0.04297,0 z M 16.296875,6.8828125 a 0.30003001,0.30003001 0 0 0 -0.01172,0.00195 c -0.374237,0.026574 -0.697697,0.3728671 -0.697265,0.7480469 5.32e-4,0.3919308 0.358069,0.7494676 0.75,0.75 0.393015,0.00117 0.75142,-0.3569837 0.751953,-0.75 -5.33e-4,-0.3930163 -0.358938,-0.7511716 -0.751953,-0.75 -0.01403,-2.998e-4 -0.027,-4.872e-4 -0.04102,0 z m 26.447266,0.4746094 a 0.30003001,0.30003001 0 0 0 -0.01172,0.00195 c -0.433804,0.030765 -0.808743,0.4322937 -0.808594,0.8671875 -5.78e-4,0.4550583 0.414083,0.8701111 0.869141,0.8710937 0.456051,5.781e-4 0.871672,-0.4150425 0.871093,-0.8710937 -9.83e-4,-0.4550571 -0.416035,-0.8697181 -0.871093,-0.8691406 -0.01656,-3.788e-4 -0.03227,-5.682e-4 -0.04883,0 z m 65.013669,2.7324221 c -0.3245,0.02315 -0.60485,0.325065 -0.60351,0.65039 0.001,0.339318 0.31107,0.647022 0.65039,0.646485 0.33932,5.37e-4 0.64902,-0.307167 0.65039,-0.646485 a 0.30003001,0.30003001 0 0 0 0,-0.002 c 5.3e-4,-0.339026 -0.30773,-0.646248 -0.64649,-0.648437 -0.0132,-3.27e-4 -0.0278,-4.81e-4 -0.041,0 a 0.30003001,0.30003001 0 0 0 -0.01,0 z m 2.63867,4.05664 a 0.30003001,0.30003001 0 0 0 -0.0137,0.002 c -0.28856,0.02182 -0.53646,0.290695 -0.53515,0.580078 0.002,0.301012 0.27516,0.574562 0.57617,0.576172 a 0.30003001,0.30003001 0 0 0 0.002,0 c 0.30237,5.08e-4 0.57846,-0.273806 0.58008,-0.576172 a 0.30003001,0.30003001 0 0 0 0,-0.002 c 5e-4,-0.303718 -0.27636,-0.580585 -0.58008,-0.580078 -0.0101,-1.77e-4 -0.0192,-3.55e-4 -0.0293,0 z m 1.97657,0.982422 c -0.32026,-7.59e-4 -0.61209,0.291069 -0.61133,0.611328 a 0.30003001,0.30003001 0 0 0 0,0.002 c 0.001,0.318978 0.29235,0.608179 0.61133,0.607421 a 0.30003001,0.30003001 0 0 0 0.002,0 c 0.31769,-0.0013 0.60617,-0.289728 0.60742,-0.607421 a 0.30003001,0.30003001 0 0 0 0,-0.002 c 7.6e-4,-0.318974 -0.28845,-0.610066 -0.60742,-0.611328 a 0.30003001,0.30003001 0 0 0 -0.002,0 z m -9.56055,3.021485 c -0.39352,0 -0.78424,0.163147 -1.0625,0.441406 -0.27826,0.278259 -0.44141,0.668983 -0.44141,1.0625 0,0.393517 0.16315,0.784241 0.44141,1.0625 0.27826,0.278259 0.66898,0.441406 1.0625,0.441406 0.39352,0 0.78424,-0.163147 1.0625,-0.441406 0.27826,-0.278259 0.44141,-0.668983 0.44141,-1.0625 0,-0.393517 -0.16315,-0.784241 -0.44141,-1.0625 -0.27826,-0.278259 -0.66898,-0.441406 -1.0625,-0.441406 z m -93.4609375,0.34375 c -0.3359935,3.32e-4 -0.6708558,0.139134 -0.9082031,0.376953 -0.2373474,0.237819 -0.3753348,0.572209 -0.375,0.908203 3.32e-4,0.335569 0.1396701,0.668967 0.3769531,0.90625 0.237283,0.237283 0.5706813,0.376621 0.90625,0.376953 0.3359936,3.35e-4 0.6703835,-0.137653 0.9082035,-0.375 0.237819,-0.237347 0.37662,-0.57221 0.376953,-0.908203 3.35e-4,-0.336419 -0.139069,-0.670319 -0.376953,-0.908203 C 10.021882,18.63321 9.6879809,18.493805 9.3515625,18.494141 Z M 106.625,19.878906 a 0.30003001,0.30003001 0 0 0 -0.01,0.002 c -0.27039,0.02016 -0.50486,0.269963 -0.50585,0.541016 -0.002,0.285769 0.25914,0.548114 0.54492,0.548828 0.28587,4.38e-4 0.54731,-0.260999 0.54687,-0.546875 -7.1e-4,-0.28577 -0.26306,-0.546481 -0.54883,-0.544922 -0.009,-1.04e-4 -0.0186,-3.12e-4 -0.0273,0 z m 1.60156,0.75 a 0.30003001,0.30003001 0 0 0 -0.0117,0.002 c -0.33139,0.02342 -0.61779,0.329892 -0.61718,0.66211 2.2e-4,0.347128 0.31693,0.663835 0.66406,0.664062 0.34759,5.15e-4 0.66579,-0.316361 0.66601,-0.664062 -2.2e-4,-0.348317 -0.31965,-0.665703 -0.66796,-0.664063 -0.0114,-1.9e-4 -0.0218,-3.99e-4 -0.0332,0 z m -8.28906,0.417969 a 0.30003001,0.30003001 0 0 0 -0.01172,0.002 c -0.30609,0.02147 -0.570658,0.304486 -0.570312,0.611328 4.24e-4,0.32038 0.292901,0.612857 0.613281,0.613282 0.32093,4.53e-4 0.61481,-0.292242 0.61523,-0.613282 -4.2e-4,-0.321655 -0.29553,-0.61486 -0.617183,-0.613281 -0.01002,-1.47e-4 -0.01928,-3.44e-4 -0.0293,0 z m 15.23242,0.21875 c -0.34618,1.17e-4 -0.66199,0.315924 -0.66211,0.662109 1.2e-4,0.346185 0.31593,0.661993 0.66211,0.66211 0.34619,-1.17e-4 0.66199,-0.315925 0.66211,-0.66211 -1.2e-4,-0.346185 -0.31592,-0.661992 -0.66211,-0.662109 z m -5.08398,0.283203 a 0.30003001,0.30003001 0 0 0 -0.0117,0.002 c -0.29141,0.02088 -0.54368,0.289975 -0.54492,0.582031 -0.001,0.306953 0.27898,0.588866 0.58593,0.589844 0.30695,4e-6 0.5879,-0.28094 0.58789,-0.58789 -9.7e-4,-0.306959 -0.28288,-0.587062 -0.58984,-0.585938 -0.009,-1.27e-4 -0.018,-3.19e-4 -0.0273,0 z m -5.75586,2.896484 a 0.30003001,0.30003001 0 0 0 -0.0117,0.002 c -0.25108,0.01854 -0.46837,0.252151 -0.4668,0.503906 0.002,0.261017 0.23899,0.498414 0.5,0.5 0.26263,9.22e-4 0.50425,-0.23738 0.50586,-0.5 9.3e-4,-0.264237 -0.24162,-0.506784 -0.50586,-0.50586 -0.007,-7.2e-5 -0.0142,-2.47e-4 -0.0215,0 z m 5.65039,0.125 a 0.30003001,0.30003001 0 0 0 -0.0117,0.002 c -0.2759,0.01933 -0.51431,0.274208 -0.51367,0.550781 3e-5,0.288971 0.26376,0.552695 0.55273,0.552734 0.28898,-2.7e-5 0.5527,-0.263756 0.55274,-0.552734 -4e-5,-0.288978 -0.26376,-0.552707 -0.55274,-0.552735 -0.009,-1.56e-4 -0.0179,-3.3e-4 -0.0273,0 z m -20.072267,2.158204 a 0.30003001,0.30003001 0 0 0 -0.0098,0.002 c -0.277303,0.01892 -0.518569,0.276742 -0.517579,0.554687 0.0019,0.288896 0.265787,0.551147 0.554688,0.550782 0.288901,3.65e-4 0.552822,-0.261886 0.554687,-0.550782 a 0.30003001,0.30003001 0 0 0 0,-0.002 c 3.62e-4,-0.290318 -0.264369,-0.555049 -0.554687,-0.554687 -0.0094,-1.55e-4 -0.01792,-3.27e-4 -0.02734,0 z m -2.890625,2.326172 c -0.281245,0.02056 -0.524539,0.282459 -0.523437,0.564453 0.0018,0.294038 0.270409,0.560918 0.564453,0.560547 0.294044,3.71e-4 0.562638,-0.266509 0.564453,-0.560547 a 0.30003001,0.30003001 0 0 0 0,-0.002 c 3.66e-4,-0.293931 -0.26689,-0.560146 -0.560547,-0.5625 -0.01139,-2.69e-4 -0.02377,-4.23e-4 -0.03516,0 a 0.30003001,0.30003001 0 0 0 -0.0098,0 z M 3.6289062,29.349609 c -0.3268323,10e-6 -0.6249895,0.298168 -0.625,0.625 1.9e-6,0.0653 0.054568,0.11302 0.076172,0.173829 -0.1566691,-0.112924 -0.3352073,-0.195506 -0.5292969,-0.195313 -0.5000347,9.91e-4 -0.9555771,0.456996 -0.9550781,0.957031 -4.99e-4,0.500036 0.4550434,0.95604 0.9550781,0.957032 0.5009841,4.99e-4 0.9575305,-0.456048 0.9570313,-0.957032 1.465e-4,-0.147039 -0.049083,-0.28517 -0.1171875,-0.414062 0.079497,0.039 0.1488965,0.103513 0.2382812,0.103515 0.3268331,-9e-6 0.6249906,-0.298167 0.625,-0.625 -1.04e-5,-0.326832 -0.2981676,-0.62499 -0.625,-0.625 z m 97.5976538,2.660157 a 0.30003001,0.30003001 0 0 0 -0.0117,0.002 c -0.26664,0.01897 -0.49748,0.265887 -0.49804,0.533203 8e-5,0.279476 0.25362,0.535816 0.5332,0.537109 0.28168,0.001 0.5401,-0.257379 0.53906,-0.539062 -0.001,-0.280203 -0.25886,-0.534241 -0.53906,-0.533203 -0.008,-8.8e-5 -0.0156,-2.62e-4 -0.0234,0 z m 2.22266,7.484375 a 0.30003001,0.30003001 0 0 0 -0.01,0.002 c -0.2627,0.01661 -0.49103,0.258348 -0.49218,0.521484 -0.002,0.277182 0.25211,0.531059 0.52929,0.529297 0.27432,-0.0017 0.52406,-0.253019 0.52344,-0.527344 -6.4e-4,-0.274145 -0.25125,-0.524754 -0.52539,-0.52539 -0.009,-1.36e-4 -0.0166,-3.05e-4 -0.0254,0 z m -97.6738294,0.07031 c -0.4855533,-3.38e-4 -0.9280727,0.442181 -0.9277344,0.927735 -3.375e-4,0.485552 0.4421816,0.928072 0.9277344,0.927734 0.4855529,3.38e-4 0.928072,-0.442182 0.9277344,-0.927734 3.383e-4,-0.485554 -0.442181,-0.928073 -0.9277344,-0.927735 z m 6.0800784,8.746094 a 0.30003001,0.30003001 0 0 0 -0.0098,0.002 c -0.306718,0.02078 -0.573351,0.305862 -0.572265,0.613281 7.22e-4,0.320281 0.292888,0.611728 0.613281,0.611328 0.321009,4e-4 0.613681,-0.292272 0.613281,-0.613281 4e-4,-0.321009 -0.292272,-0.613681 -0.613281,-0.613281 -0.0107,-1.93e-4 -0.02055,-3.69e-4 -0.03125,0 z m 48.757812,4.763672 c -0.353985,8.56e-4 -0.676764,0.323749 -0.675781,0.677734 8.54e-4,0.352815 0.322967,0.674928 0.675781,0.675781 0.353985,9.83e-4 0.676879,-0.321795 0.677735,-0.675781 9.86e-4,-0.355156 -0.322579,-0.678721 -0.677735,-0.677734 z m -41.585937,3.984375 a 0.30003001,0.30003001 0 0 0 -0.01172,0.002 c -0.36903,0.02669 -0.688055,0.368288 -0.6875,0.738281 4.27e-4,0.386886 0.353348,0.739807 0.740234,0.740234 0.386887,-4.27e-4 0.739807,-0.353348 0.740235,-0.740234 -4.28e-4,-0.386886 -0.353348,-0.739807 -0.740235,-0.740234 -0.01415,-3.1e-4 -0.02687,-5.03e-4 -0.04102,0 z m 35.02539,1.861328 c -0.35799,-6.61e-4 -0.684256,0.325603 -0.683593,0.683594 a 0.30003001,0.30003001 0 0 0 0,0.002 c 0.0012,0.356827 0.326765,0.680348 0.683593,0.679687 0.356829,6.62e-4 0.682429,-0.32286 0.683594,-0.679687 a 0.30003001,0.30003001 0 0 0 0,-0.002 c 6.62e-4,-0.357991 -0.325603,-0.684256 -0.683594,-0.683594 z m 9.751954,2.966797 a 0.30003001,0.30003001 0 0 0 -0.01172,0.002 c -0.341255,0.02382 -0.636338,0.339556 -0.636719,0.68164 -5.55e-4,0.358937 0.32661,0.686102 0.685547,0.685547 a 0.30003001,0.30003001 0 0 0 0.002,0 c 0.357776,-0.0013 0.682196,-0.327769 0.681641,-0.685547 a 0.30003001,0.30003001 0 0 0 0,-0.002 c -0.0013,-0.356617 -0.325024,-0.68038 -0.681641,-0.68164 -0.01353,-3.21e-4 -0.02554,-4.82e-4 -0.03906,0 z m 10.601562,0.792969 c -0.367881,0.0014 -0.701528,0.337194 -0.701172,0.705078 -3.55e-4,0.367883 0.333291,0.703653 0.701172,0.705078 a 0.30003001,0.30003001 0 0 0 0.002,0 c 0.369016,3.55e-4 0.705432,-0.336062 0.705078,-0.705078 3.55e-4,-0.369017 -0.336061,-0.705433 -0.705078,-0.705078 a 0.30003001,0.30003001 0 0 0 -0.002,0 z m -22.875,4.443359 a 0.30003001,0.30003001 0 0 0 -0.0098,0.002 c -0.342697,0.02332 -0.640719,0.340104 -0.640625,0.683594 -0.0011,0.360338 0.327162,0.688594 0.6875,0.6875 0.359182,-7.28e-4 0.686637,-0.328319 0.685547,-0.6875 -7.26e-4,-0.358025 -0.327522,-0.684821 -0.685547,-0.685547 -0.01283,-2.66e-4 -0.02428,-4.55e-4 -0.03711,0 z m 14.068359,12.117187 c -0.337544,-6.47e-4 -0.645178,0.306988 -0.644531,0.644532 -6.47e-4,0.337544 0.306987,0.645178 0.644531,0.644531 a 0.30003001,0.30003001 0 0 0 0.002,0 c 0.336324,-0.0013 0.641272,-0.308207 0.640626,-0.644531 6.46e-4,-0.336325 -0.304302,-0.643262 -0.640626,-0.644532 a 0.30003001,0.30003001 0 0 0 -0.002,0 z M 54.34375,80.087891 c -0.267662,0.01794 -0.50054,0.264941 -0.5,0.533203 5.4e-5,0.281235 0.257836,0.537436 0.539062,0.535156 0.279018,-0.0012 0.533141,-0.256027 0.533204,-0.535156 -6.3e-5,-0.278246 -0.25328,-0.530434 -0.53125,-0.533203 -0.01081,-2.51e-4 -0.02239,-4.06e-4 -0.0332,0 a 0.30003001,0.30003001 0 0 0 -0.0078,0 z m -16.525391,1.433593 c -0.327119,1.7e-4 -0.625668,0.297993 -0.626953,0.625 -0.0018,0.328983 0.297966,0.630694 0.626953,0.63086 0.328372,-1.64e-4 0.627625,-0.300647 0.626953,-0.628906 -1.68e-4,-0.327736 -0.299217,-0.626785 -0.626953,-0.626954 z m 58.392579,0.47461 a 0.30003001,0.30003001 0 0 0 -0.01172,0.002 c -0.288615,0.01978 -0.538193,0.286881 -0.539063,0.576172 -5.04e-4,0.303716 0.276362,0.580581 0.580078,0.580078 0.303717,5.04e-4 0.580582,-0.276361 0.580078,-0.580078 a 0.30003001,0.30003001 0 0 0 0,-0.002 c -0.0016,-0.302365 -0.27771,-0.576678 -0.580078,-0.576172 -0.01014,-1.78e-4 -0.01917,-3.55e-4 -0.0293,0 z m 7.197262,0.300781 c -0.28068,0.0215 -0.52234,0.281088 -0.52343,0.5625 -0.001,0.296811 0.26959,0.569399 0.5664,0.570313 0.29621,-9.01e-4 0.56655,-0.272265 0.56641,-0.56836 -9e-4,-0.293937 -0.26884,-0.560868 -0.5625,-0.564453 -0.0113,-2.64e-4 -0.0238,-4.15e-4 -0.0352,0 a 0.30003001,0.30003001 0 0 0 -0.0117,0 z M 56.972656,87.0625 c -0.280515,-6.08e-4 -0.536895,0.256486 -0.535156,0.537109 0.0017,0.279025 0.257974,0.532975 0.537109,0.53125 0.277533,-0.0017 0.530638,-0.255557 0.53125,-0.533203 5.98e-4,-0.27841 -0.252843,-0.533433 -0.53125,-0.535156 z m 21.642578,0.611328 a 0.30003001,0.30003001 0 0 0 -0.01172,0.002 c -0.35227,0.02431 -0.656626,0.350018 -0.65625,0.703125 4.81e-4,0.368432 0.336646,0.704597 0.705078,0.705078 0.368838,1.74e-4 0.70655,-0.336129 0.707031,-0.705078 -4.81e-4,-0.369566 -0.33942,-0.706377 -0.708984,-0.705078 -0.0119,-2.01e-4 -0.02326,-4.02e-4 -0.03516,0 z m -21.447265,1.117188 c -0.286796,7.06e-4 -0.548435,0.263988 -0.546875,0.550781 0.0018,0.284623 0.262139,0.544217 0.546875,0.544922 0.28535,-7.08e-4 0.546168,-0.261525 0.546875,-0.546875 4.36e-4,-0.28607 -0.260696,-0.548122 -0.546875,-0.548828 z m 33.089843,0.289062 a 0.30003001,0.30003001 0 0 0 -0.0098,0.002 c -0.248236,0.016 -0.464213,0.24539 -0.464844,0.494141 -2.71e-4,0.260863 0.239028,0.499446 0.5,0.498047 0.259941,-0.0012 0.495533,-0.24006 0.494141,-0.5 -0.0012,-0.258295 -0.235846,-0.492952 -0.494141,-0.494141 -0.0088,-1.62e-4 -0.01658,-3.07e-4 -0.02539,0 z m -33.287109,1.228516 c -0.318833,0.02382 -0.594712,0.318951 -0.59375,0.638672 -7.7e-5,0.335078 0.305547,0.640702 0.640625,0.640625 0.335079,7.7e-5 0.640702,-0.305547 0.640625,-0.640625 7.7e-5,-0.333577 -0.303417,-0.636032 -0.636719,-0.638672 -0.01338,-3.4e-4 -0.02764,-5.01e-4 -0.04102,0 a 0.30003001,0.30003001 0 0 0 -0.0098,0 z m -30.857422,1.064453 a 0.30003001,0.30003001 0 0 0 -0.01172,0.002 c -0.447585,0.03158 -0.834359,0.445833 -0.833984,0.894531 -7.67e-4,0.469499 0.426985,0.897667 0.896484,0.898438 0.470478,7.68e-4 0.899206,-0.42796 0.898438,-0.898438 -7.71e-4,-0.469499 -0.428938,-0.897251 -0.898438,-0.896484 -0.01723,-4.01e-4 -0.03356,-5.92e-4 -0.05078,0 z m -11.03125,2.853515 a 0.30003001,0.30003001 0 0 0 -0.0098,0.002 c -0.354243,0.0244 -0.660341,0.351949 -0.660157,0.707031 6.84e-4,0.371466 0.339472,0.710073 0.710938,0.708984 0.370337,-6.82e-4 0.708302,-0.338647 0.708984,-0.708984 -6.82e-4,-0.370338 -0.338647,-0.708302 -0.708984,-0.708985 -0.01317,-2.62e-4 -0.02785,-4.71e-4 -0.04102,0 z m 39.333985,0.3125 c -0.279413,-7.64e-4 -0.533968,0.253791 -0.533204,0.533204 -7.64e-4,0.279413 0.253791,0.533967 0.533204,0.533203 a 0.30003001,0.30003001 0 0 0 0.002,0 c 0.277917,-0.0016 0.530061,-0.255283 0.529297,-0.533203 7.64e-4,-0.277921 -0.25138,-0.531621 -0.529297,-0.533204 a 0.30003001,0.30003001 0 0 0 -0.002,0 z M 59.875,94.654297 c -0.314685,-1.51e-4 -0.601714,0.286877 -0.601562,0.601562 -1.53e-4,0.314686 0.286876,0.601714 0.601562,0.601563 0.314686,1.51e-4 0.601715,-0.286877 0.601562,-0.601563 1.52e-4,-0.314685 -0.286877,-0.601713 -0.601562,-0.601562 z m 6.105469,1.673828 c -0.34147,-4.26e-4 -0.65277,0.310874 -0.652344,0.652344 -4.25e-4,0.341469 0.310875,0.652769 0.652344,0.652343 a 0.30003001,0.30003001 0 0 0 0.002,0 c 0.34026,-0.0015 0.648864,-0.31208 0.648437,-0.652343 4.28e-4,-0.340264 -0.308176,-0.650875 -0.648437,-0.652344 a 0.30003001,0.30003001 0 0 0 -0.002,0 z M 77.541016,99.25 c -0.323294,0.02307 -0.603034,0.322369 -0.603516,0.646484 -5.33e-4,0.340526 0.309864,0.650926 0.650391,0.650396 0.340526,5.3e-4 0.650924,-0.30987 0.65039,-0.650396 a 0.30003001,0.30003001 0 0 0 0,-0.002 c -0.0014,-0.337814 -0.308937,-0.642353 -0.646484,-0.644531 -0.01322,-3.27e-4 -0.0278,-4.81e-4 -0.04102,0 a 0.30003001,0.30003001 0 0 0 -0.0098,0 z m -2.548828,9.91797 a 0.30003001,0.30003001 0 0 0 -0.0078,0.002 c -0.171261,0.007 -0.339492,0.0512 -0.482422,0.14649 -0.142929,0.0953 -0.269255,0.26387 -0.267578,0.46289 0.0012,0.20719 0.137319,0.37727 0.289063,0.4707 0.151743,0.0934 0.33125,0.13479 0.509765,0.13477 0.178515,2e-5 0.358022,-0.0413 0.509766,-0.13477 0.151743,-0.0934 0.287852,-0.26351 0.289062,-0.4707 9.18e-4,-0.20804 -0.136933,-0.38035 -0.289062,-0.47461 -0.152129,-0.0943 -0.330529,-0.13674 -0.509766,-0.13672 -0.01407,-2.3e-4 -0.02694,-3.1e-4 -0.04102,0 z m 9.660156,2.03125 c -0.4015,-1e-5 -0.767587,0.36608 -0.767578,0.76758 0,0.40149 0.366084,0.76758 0.767578,0.76758 0.401494,0 0.767578,-0.36609 0.767578,-0.76758 8e-6,-0.4015 -0.366079,-0.76759 -0.767578,-0.76758 z m -10.378906,1.35547 c -0.315448,0.002 -0.602676,0.29186 -0.601563,0.60742 0.002,0.31415 0.289252,0.60065 0.603516,0.60156 0.315448,-1e-5 0.604545,-0.28796 0.605468,-0.60351 -5e-6,-0.31613 -0.289338,-0.60546 -0.605468,-0.60547 z m -4.951172,0.74023 a 0.30003001,0.30003001 0 0 0 -0.01172,0.002 c -0.346354,0.0241 -0.645495,0.34421 -0.644531,0.6914 -1.35e-4,0.36273 0.330631,0.69349 0.693359,0.69336 0.362728,1.3e-4 0.693494,-0.33063 0.693359,-0.69336 1.35e-4,-0.36273 -0.330631,-0.69349 -0.693359,-0.69336 -0.01273,-2.6e-4 -0.02438,-4.4e-4 -0.03711,0 z m -28.320313,3.125 a 0.30003001,0.30003001 0 0 0 -0.01172,0.002 c -0.383296,0.0268 -0.714655,0.38139 -0.714843,0.76562 -5.02e-4,0.40285 0.366682,0.77003 0.769531,0.76953 0.402849,5e-4 0.770033,-0.36668 0.769531,-0.76953 -0.0012,-0.40178 -0.367748,-0.76808 -0.769531,-0.76758 -0.0148,-3.3e-4 -0.02818,-5.2e-4 -0.04297,0 z m 60.599607,0.73242 c -0.36353,1.9e-4 -0.69514,0.33178 -0.69531,0.69532 1.8e-4,0.36352 0.33179,0.69513 0.69531,0.69531 0.36353,-1.8e-4 0.69513,-0.33179 0.69532,-0.69531 -1.8e-4,-0.36354 -0.33179,-0.69513 -0.69532,-0.69532 z"
         id="Background-Stars"
         style="display:inline;opacity:1;vector-effect:none;fill:#aeaeae;fill-opacity:1;stroke:none;stroke-width:1;stroke-linecap:round;stroke-linejoin:round;stroke-miterlimit:4;stroke-dasharray:none;stroke-dashoffset:0;stroke-opacity:0.59538784;paint-order:fill markers stroke"
         xlink:href=""
         transform="translate(0.26898436,1.8052118)" />
</svg>
