<?xml version="1.0" encoding="UTF-8" standalone="no"?>
<svg
     xmlns:dc="http://purl.org/dc/elements/1.1/"
     xmlns:cc="http://creativecommons.org/ns#"
     xmlns:rdf="http://www.w3.org/1999/02/22-rdf-syntax-ns#"
     xmlns:svg="http://www.w3.org/2000/svg"
     xmlns="http://www.w3.org/2000/svg"
     id="svg5691"
     version="1.0"
     viewBox="0 0 120 120">
    <defs
         id="defs5695" />
    <metadata
    	http-equiv="Etag"
	content="2018-12-22"
         id="metadata5687">
        <rdf:RDF>
            <cc:Work
                 rdf:about="">
                <dc:format>image/svg+xml</dc:format>
                <dc:type
                     rdf:resource="http://purl.org/dc/dcmitype/StillImage" />
                <dc:title></dc:title>
            </cc:Work>
        </rdf:RDF>
    </metadata>
    <path
         id="path5689"
         d="m34.046 110.6c-11.399-4.07-19.676-14.21-22.953-28.11-1.4875-6.308-1.908-16.733-0.675-16.733 0.40964 0 1.5037 2.8604 2.4313 6.3564 2.0298 7.6501 5.4919 14.844 8.8362 18.36 5.5548 5.8408 19.313 8.1283 27.241 4.5291 6.1753-2.8037 8.6796-9.4674 5.9942-15.951-2.0751-5.0097-6.7827-6.6848-15.552-5.5338 0 0-5.374-5.7846-7.0861-16.057l5.5083 0.49947c6.6344 0.60159 11.644-0.86493 14.243-4.17 2.443-3.1058 2.3902-4.307-0.32846-7.4676-3.923-4.5607-10.967-3.4054-25.229 4.138l-7.1961-12.063 3.0169-2.3011c7.5604-5.7666 20.688-8.6495 28.159-6.1839 6.8049 2.2458 11.8 11.157 10.465 18.672-0.90204 5.0805-4.9758 12.196-8.1231 14.189l-2.7142 1.7185 3.7492 1.6906c6.371 2.8729 10.26 0.67675 14.907-8.4174 6.4308-12.585 10.602-15.843 20.3-15.857 4.5159-0.0065 6.1232 0.4672 9.4169 2.7754 8.2205 5.7608 12.697 17.69 11.713 31.217-1.2453 17.132-9.3602 27.523-21.494 27.523-6.659 0-10.951-2.3355-14.368-7.8181-3.001-4.8158-4.3533-14.354-2.63-18.549 0.8268-2.0128 0.97625-2.0811 1.0303-0.47085 0.09935 2.9604 3.4674 7.7722 6.5595 9.3712 7.5867 3.9233 18.478-1.0059 22.787-10.313 3.2715-7.066 1.5164-20.695-2.9744-23.099-0.93953-0.50282-3.2612-0.91422-5.1591-0.91422-4.0344 0-7.2027 2.9004-11.645 10.66-1.5357 2.6828-4.1202 6.1491-5.7433 7.7029-2.6371 2.5246-3.5788 2.8251-8.853 2.8251h-5.9021l1.9078 4.2376c2.7307 6.0655 2.6015 15.921-0.28731 21.92-2.5526 5.3014-8.4548 10.669-13.173 11.979-4.5934 1.276-12.073 1.111-16.181-0.35688zm22.226-81.98c-2.611-4.455-4.218-12.772-2.467-12.772 2.0559 4.4601 6.2702 8.4393 10.783 11.216 8.1049 3.9235 16.323 2.3398 25.302-4.8756 1.9766-1.5884 3.727-2.7113 3.8898-2.4953 2.1924 3.4023 5.9847 6.1826 7.2382 10.136 0 1.6681-7.181 6.469-12.847 8.589-14.044 4.0457-23.603 2.4453-31.898-9.7972zm7.0774-10.299 9.1434-10.138 10.161 9.4063c-3.4756 2.8626-5.9845 7.3051-9.9552 9.5582-3.1374-2.3128-7.82-5.0399-9.3495-8.8261z"
         style="stroke:#000000;fill:#fa0002" />
</svg>
