<?xml version="1.0" encoding="UTF-8" standalone="no"?>
<svg
     xmlns:dc="http://purl.org/dc/elements/1.1/"
     xmlns:cc="http://creativecommons.org/ns#"
     xmlns:rdf="http://www.w3.org/1999/02/22-rdf-syntax-ns#"
     xmlns:svg="http://www.w3.org/2000/svg"
     xmlns="http://www.w3.org/2000/svg"
     id="svg4606"
     viewBox="0 0 120 120"
     version="1.1">
    <defs
         id="defs4600">
        <filter
             x="-0.09"
             y="-0.09"
             width="1.18"
             height="1.18"
             style="color-interpolation-filters:sRGB"
             id="filter6538">
            <feGaussianBlur
                 id="feGaussianBlur4597"
                 stdDeviation="3.7714524" />
        </filter>
    </defs>
    <!--
    	http-equiv="Etag"
	content="2018-12-27"
	-->
    <metadata
         id="metadata4602">
        <rdf:RDF>
            <cc:Work
                 rdf:about="">
                <dc:format>image/svg+xml</dc:format>
                <dc:type
                     rdf:resource="http://purl.org/dc/dcmitype/StillImage" />
                <dc:title></dc:title>
            </cc:Work>
        </rdf:RDF>
    </metadata>
    <path
         d="m47.386 72.612-37.714 37.718m62.857-37.718 37.711 37.718m-37.711-62.861 37.711-37.715m-100.57 0l37.716 37.715m62.854 25.143h-100.57m100.57-25.143h-100.57m62.859-37.715v100.58m-25.143-100.58v100.58"
         style="stroke-opacity:.74406;filter:url(#filter6538);stroke:#f40000;stroke-linecap:round;stroke-width:3;fill:none"
         id="Cakra-Glow" />
    <path
         d="m47.386 72.612-37.714 37.718m62.857-37.718 37.711 37.718m-37.711-62.861 37.711-37.715m-100.57 0l37.716 37.715m62.854 25.143h-100.57m100.57-25.143h-100.57m62.859-37.715v100.58m-25.143-100.58v100.58"
         style="stroke:#f40000;stroke-width:.99997;stroke-linecap:round;fill:none"
         id="Cakra" />
</svg>
